<svg width="89" height="89" viewBox="0 0 89 89" fill="none" xmlns="http://www.w3.org/2000/svg">
<circle cx="44.5" cy="44.5" r="44.5" fill="#472C1B"/>
<path d="M22.4981 46.9585H17.4585V42.0418H22.4981C23.6043 31.7906 31.7906 23.6043 42.0418 22.4981V17.4585H46.9585V22.4981C57.2097 23.6043 65.396 31.7906 66.5023 42.0418H71.5418V46.9585H66.5023C65.396 57.2097 57.2097 65.396 46.9585 66.5023V71.5418H42.0418V66.5023C31.7906 65.396 23.6043 57.2097 22.4981 46.9585ZM44.5002 27.2918C34.9864 27.2918 27.2918 34.9864 27.2918 44.5002C27.2918 54.0139 34.9864 61.7085 44.5002 61.7085C54.0139 61.7085 61.7085 54.0139 61.7085 44.5002C61.7085 34.9864 54.0139 27.2918 44.5002 27.2918ZM42.3614 57.4064H46.6635V53.1043H42.3614V57.4064ZM44.5002 31.5939C39.7556 31.5939 35.896 35.4535 35.896 40.1981H40.1981C40.1981 37.8135 42.1156 35.896 44.5002 35.896C46.8847 35.896 48.8022 37.8135 48.8022 40.1981C48.8022 44.5002 42.3614 43.9593 42.3614 50.9656H46.6635C46.6635 46.1227 53.1043 45.5818 53.1043 40.1981C53.1043 35.4535 49.2447 31.5939 44.5002 31.5939Z" fill="#FEFAE0"/>
</svg>
