<svg width="100" height="37" viewBox="0 0 100 37" fill="none" xmlns="http://www.w3.org/2000/svg">
<path d="M18.5625 35.4375C18.5625 35.75 18.4844 36 18.3281 36.1875C18.1875 36.375 17.9375 36.4688 17.5781 36.4688C17.3906 36.4688 17.1953 36.4453 16.9922 36.3984C16.7891 36.3672 16.5938 36.3125 16.4062 36.2344C16.0156 36.125 15.7031 36.0234 15.4688 35.9297C15.25 35.8359 15.0781 35.7109 14.9531 35.5547C14.8438 35.4141 14.7734 35.2266 14.7422 34.9922C14.7109 34.7578 14.6875 34.4375 14.6719 34.0312C14.5469 30.8281 14.4062 27.6562 14.25 24.5156C14.1094 21.3594 13.875 18.1875 13.5469 15C13.3281 16.0781 13.1172 17.1562 12.9141 18.2344C12.7109 19.3125 12.5 20.4062 12.2812 21.5156C12.0625 22.6719 11.8516 23.8516 11.6484 25.0547C11.4609 26.2578 11.1562 27.4219 10.7344 28.5469C10.5625 29 10.3516 29.3594 10.1016 29.625C9.85156 29.875 9.46875 30 8.95312 30C8.57812 30 8.27344 29.9375 8.03906 29.8125C7.80469 29.6719 7.57812 29.4688 7.35938 29.2031C7.15625 28.9844 6.9375 28.5625 6.70312 27.9375C6.46875 27.3125 6.21875 26.5859 5.95312 25.7578C5.70312 24.9141 5.45312 24.0156 5.20312 23.0625C4.95312 22.1094 4.71875 21.1953 4.5 20.3203C4.28125 19.4297 4.08594 18.6172 3.91406 17.8828C3.74219 17.1484 3.60938 16.5938 3.51562 16.2188V19.4062C3.51562 21.4844 3.55469 23.5547 3.63281 25.6172C3.71094 27.6797 3.84375 29.7344 4.03125 31.7812C4.07812 32.2344 4.14062 32.6875 4.21875 33.1406C4.3125 33.5938 4.35938 34.0469 4.35938 34.5C4.35938 34.9062 4.21875 35.1719 3.9375 35.2969C3.67188 35.4219 3.375 35.4844 3.04688 35.4844C2.15625 35.4844 1.46875 35.2969 0.984375 34.9219C0.515625 34.5312 0.28125 33.875 0.28125 32.9531C0.28125 31.0625 0.234375 29.1875 0.140625 27.3281C0.046875 25.4688 0 23.5938 0 21.7031C0 21.4375 0 20.9766 0 20.3203C0.015625 19.6641 0.03125 18.8906 0.046875 18C0.0625 17.0938 0.078125 16.1172 0.09375 15.0703C0.125 14.0078 0.15625 12.9375 0.1875 11.8594C0.21875 10.7812 0.25 9.73437 0.28125 8.71875C0.3125 7.6875 0.34375 6.76563 0.375 5.95312C0.40625 5.14062 0.4375 4.46875 0.46875 3.9375C0.515625 3.39063 0.5625 3.0625 0.609375 2.95312C0.6875 2.73438 0.773438 2.59375 0.867188 2.53125C0.976562 2.46875 1.14062 2.4375 1.35938 2.4375C1.95312 2.4375 2.44531 2.57031 2.83594 2.83594C3.24219 3.08594 3.51562 3.51562 3.65625 4.125C3.875 4.45312 4.125 5.05469 4.40625 5.92969C4.6875 6.78906 4.98438 7.79688 5.29688 8.95312C5.60938 10.1094 5.92188 11.3594 6.23438 12.7031C6.5625 14.0312 6.86719 15.3125 7.14844 16.5469C7.44531 17.7812 7.71094 18.9141 7.94531 19.9453C8.19531 20.9766 8.39062 21.7656 8.53125 22.3125C8.98438 19.625 9.44531 16.9531 9.91406 14.2969C10.3828 11.6406 10.8281 8.96875 11.25 6.28125C11.3281 5.82813 11.4062 5.38281 11.4844 4.94531C11.5781 4.50781 11.625 4.0625 11.625 3.60938C11.625 3.32812 11.5859 3.07031 11.5078 2.83594C11.4297 2.58594 11.3906 2.32812 11.3906 2.0625C11.3906 1.73438 11.4922 1.53906 11.6953 1.47656C11.9141 1.39844 12.1562 1.35938 12.4219 1.35938C12.6719 1.35938 12.9688 1.39844 13.3125 1.47656C13.6562 1.55469 13.9844 1.67187 14.2969 1.82812C14.625 1.98438 14.8984 2.17969 15.1172 2.41406C15.3516 2.64844 15.4688 2.92188 15.4688 3.23438C15.4688 3.78125 15.4219 4.35938 15.3281 4.96875C15.8906 7.60938 16.3594 10.2578 16.7344 12.9141C17.1094 15.5547 17.3906 18.2188 17.5781 20.9062C17.7656 23.2188 17.9141 25.5156 18.0234 27.7969C18.1484 30.0781 18.2969 32.3594 18.4688 34.6406C18.5 34.7812 18.5234 34.9141 18.5391 35.0391C18.5547 35.1641 18.5625 35.2969 18.5625 35.4375ZM35.5547 32.0156C35.5547 32.4688 35.4375 32.8984 35.2031 33.3047C34.9688 33.6953 34.6484 33.9844 34.2422 34.1719C34.1172 34.2344 33.8125 34.2969 33.3281 34.3594C32.8438 34.4062 32.3203 34.4531 31.7578 34.5C31.1953 34.5469 30.6562 34.5938 30.1406 34.6406C29.6406 34.6875 29.2891 34.7188 29.0859 34.7344C29.0391 35 28.9141 35.1875 28.7109 35.2969C28.5078 35.3906 28.2891 35.4375 28.0547 35.4375C27.7891 35.4375 27.4844 35.3984 27.1406 35.3203C26.7969 35.2422 26.4922 35.1562 26.2266 35.0625C25.5234 35.1562 24.8125 35.2578 24.0938 35.3672C23.375 35.4766 22.6484 35.5312 21.9141 35.5312C21.3516 35.5312 21.0703 35.2656 21.0703 34.7344C21.0703 34.2031 21.2188 33.7969 21.5156 33.5156C21.8125 33.2344 22.1719 33.0234 22.5938 32.8828C23.0156 32.7422 23.4688 32.6484 23.9531 32.6016C24.4375 32.5547 24.8672 32.5 25.2422 32.4375C25.1641 28 25.0781 23.5938 24.9844 19.2188C24.9062 14.8438 24.8672 10.4375 24.8672 6C24.2266 6.04688 23.6016 6.09375 22.9922 6.14062C22.3828 6.17187 21.7734 6.1875 21.1641 6.1875C21.0391 6.1875 20.9062 6.1875 20.7656 6.1875C20.625 6.17187 20.4922 6.14844 20.3672 6.11719C20.2578 6.07031 20.1641 6.00781 20.0859 5.92969C19.9922 5.83594 19.9453 5.70312 19.9453 5.53125C19.9453 5.23437 20.0078 4.97656 20.1328 4.75781C20.2578 4.52344 20.4219 4.33594 20.625 4.19531C20.8438 4.03906 21.0781 3.91406 21.3281 3.82031C21.5781 3.72656 21.8359 3.65625 22.1016 3.60938C22.7734 3.48438 23.4531 3.38281 24.1406 3.30469C24.8438 3.21094 25.5391 3.125 26.2266 3.04688C26.9297 2.95312 27.625 2.85938 28.3125 2.76562C29.0156 2.67188 29.7109 2.54688 30.3984 2.39062C31.0547 2.25 31.7109 2.07031 32.3672 1.85156C33.0234 1.61719 33.6953 1.5 34.3828 1.5C34.7578 1.5 35.0078 1.64062 35.1328 1.92188C35.2578 2.1875 35.3203 2.48438 35.3203 2.8125C35.3203 3.07812 35.2891 3.33594 35.2266 3.58594C35.1797 3.82031 35.0703 4.04688 34.8984 4.26562C34.8047 4.39062 34.5938 4.51563 34.2656 4.64062C33.9531 4.75 33.5703 4.85156 33.1172 4.94531C32.6797 5.03906 32.2031 5.13281 31.6875 5.22656C31.1875 5.30469 30.6953 5.38281 30.2109 5.46094C29.7422 5.52344 29.3125 5.57812 28.9219 5.625C28.5312 5.67188 28.2422 5.70312 28.0547 5.71875C28.2266 7.89063 28.3438 10.0625 28.4062 12.2344C28.4844 14.4062 28.5469 16.5781 28.5938 18.75C28.6406 20.9219 28.6875 23.0938 28.7344 25.2656C28.7812 27.4375 28.8672 29.6094 28.9922 31.7812C29.8828 31.6406 30.7812 31.5078 31.6875 31.3828C32.5938 31.2422 33.5078 31.1719 34.4297 31.1719C34.6953 31.1719 34.9453 31.2344 35.1797 31.3594C35.4297 31.4688 35.5547 31.6875 35.5547 32.0156ZM52.2656 33.4688C52.2656 33.75 52.2344 34.0312 52.1719 34.3125C52.125 34.5781 52.0312 34.8203 51.8906 35.0391C51.7656 35.2422 51.5938 35.4062 51.375 35.5312C51.1562 35.6562 50.875 35.7188 50.5312 35.7188C50.1094 35.7188 49.7656 35.625 49.5 35.4375C49.25 35.2656 49.0156 35.0156 48.7969 34.6875C48.5 34.2656 48.2344 33.7812 48 33.2344C47.7656 32.6719 47.5547 32.1016 47.3672 31.5234C47.1797 30.9297 47 30.3438 46.8281 29.7656C46.6719 29.1719 46.5156 28.625 46.3594 28.125C45.5156 25.5 44.7266 22.8828 43.9922 20.2734C43.2734 17.6641 42.5 15.0469 41.6719 12.4219C41.5938 15.8125 41.5312 19.1875 41.4844 22.5469C41.4531 25.9062 41.4375 29.2812 41.4375 32.6719C41.4375 32.8438 41.4297 33.0391 41.4141 33.2578C41.3984 33.4766 41.3594 33.6875 41.2969 33.8906C41.2344 34.0781 41.1328 34.2422 40.9922 34.3828C40.8672 34.5234 40.6875 34.5938 40.4531 34.5938C39.6562 34.5938 39.0469 34.3828 38.625 33.9609C38.2188 33.5234 38.0156 32.9062 38.0156 32.1094C38.0156 27.7188 38.0234 23.3672 38.0391 19.0547C38.0547 14.7422 38.0625 10.4062 38.0625 6.04688V2.71875C38.0625 2.35938 38.125 2.0625 38.25 1.82812C38.3906 1.57812 38.6875 1.45312 39.1406 1.45312C39.4531 1.45312 39.7734 1.5 40.1016 1.59375C40.4297 1.67187 40.7188 1.79688 40.9688 1.96875C41.2344 2.14062 41.4453 2.36719 41.6016 2.64844C41.7734 2.91406 41.8594 3.23438 41.8594 3.60938C42.5156 4.85937 43.0625 6.14844 43.5 7.47656C43.9531 8.80469 44.3906 10.1406 44.8125 11.4844C45.4219 13.4375 46.0234 15.3906 46.6172 17.3438C47.2109 19.2969 47.8125 21.2656 48.4219 23.25C48.3281 20.2969 48.2266 17.3516 48.1172 14.4141C48.0234 11.4609 47.8281 8.51562 47.5312 5.57812C47.4531 4.9375 47.3594 4.3125 47.25 3.70312C47.1562 3.09375 47.1094 2.46875 47.1094 1.82812C47.1094 1.5 47.2188 1.28125 47.4375 1.17188C47.6562 1.04688 47.9062 0.984375 48.1875 0.984375C48.6719 0.984375 49.0859 1.02344 49.4297 1.10156C49.7734 1.17969 50.0625 1.3125 50.2969 1.5C50.5312 1.6875 50.7109 1.94531 50.8359 2.27344C50.9609 2.58594 51.0625 2.98437 51.1406 3.46875C51.2344 4.3125 51.3047 5.16406 51.3516 6.02344C51.4141 6.86719 51.4688 7.70313 51.5156 8.53125C51.6562 10.625 51.7578 12.7031 51.8203 14.7656C51.8828 16.8281 51.9375 18.9062 51.9844 21C52.0312 23.0781 52.0859 25.1562 52.1484 27.2344C52.2266 29.2969 52.2656 31.375 52.2656 33.4688ZM72.4922 18.6094C72.4922 20.2812 72.3438 21.9297 72.0469 23.5547C71.75 25.1641 71.2578 26.6719 70.5703 28.0781C69.8984 29.4844 69.0078 30.7656 67.8984 31.9219C66.7891 33.0625 65.4297 34 63.8203 34.7344C63.4141 34.9219 62.9688 35.0938 62.4844 35.25C62.0156 35.4062 61.5234 35.5391 61.0078 35.6484C60.5078 35.7578 60.0078 35.8438 59.5078 35.9062C59.0078 35.9688 58.5391 36 58.1016 36C57.9297 36 57.7344 35.9922 57.5156 35.9766C57.3125 35.9766 57.1172 35.9453 56.9297 35.8828C56.7422 35.8359 56.5859 35.75 56.4609 35.625C56.3359 35.5 56.2734 35.3281 56.2734 35.1094C56.2734 34.9219 56.3125 34.7266 56.3906 34.5234C56.4688 34.3203 56.5703 34.125 56.6953 33.9375C56.8359 33.75 56.9844 33.5859 57.1406 33.4453C57.2969 33.2891 57.4609 33.1719 57.6328 33.0938C57.5547 32.9688 57.4766 32.6172 57.3984 32.0391C57.3359 31.4609 57.2734 30.7266 57.2109 29.8359C57.1641 28.9453 57.1172 27.9531 57.0703 26.8594C57.0234 25.75 56.9766 24.6094 56.9297 23.4375C56.8984 22.2656 56.8672 21.1016 56.8359 19.9453C56.8203 18.7734 56.8047 17.6953 56.7891 16.7109C56.7734 15.7266 56.7578 14.875 56.7422 14.1562C56.7422 13.4219 56.7422 12.8906 56.7422 12.5625C56.7422 11.0937 56.7656 9.64844 56.8125 8.22656C56.8594 6.80469 56.8828 5.35938 56.8828 3.89062C56.7109 3.89062 56.5469 3.84375 56.3906 3.75C56.25 3.65625 56.1797 3.51562 56.1797 3.32812C56.1797 3.07812 56.2422 2.85156 56.3672 2.64844C56.4922 2.42969 56.6484 2.24219 56.8359 2.08594C57.0391 1.92969 57.2578 1.8125 57.4922 1.73438C57.7422 1.64062 57.9766 1.59375 58.1953 1.59375C58.4141 1.59375 58.625 1.61719 58.8281 1.66406C59.0312 1.69531 59.2422 1.73438 59.4609 1.78125C61.5391 2.28125 63.3906 3.03906 65.0156 4.05469C66.6406 5.07031 68 6.30469 69.0938 7.75781C70.2031 9.21094 71.0469 10.8516 71.625 12.6797C72.2031 14.5078 72.4922 16.4844 72.4922 18.6094ZM69.0234 18.1875C69.0234 16.625 68.8359 15.1562 68.4609 13.7812C68.0859 12.3906 67.5234 11.125 66.7734 9.98438C66.0391 8.82813 65.1094 7.8125 63.9844 6.9375C62.875 6.04688 61.5859 5.3125 60.1172 4.73438V4.82812C60.1172 8.85938 60.1797 12.8594 60.3047 16.8281C60.4453 20.7812 60.6484 24.7656 60.9141 28.7812C60.9609 29.3906 61 30 61.0312 30.6094C61.0781 31.2031 61.1484 31.7969 61.2422 32.3906C62.7109 31.9062 63.9453 31.1562 64.9453 30.1406C65.9453 29.125 66.7422 27.9688 67.3359 26.6719C67.9453 25.3594 68.375 23.9688 68.625 22.5C68.8906 21.0156 69.0234 19.5781 69.0234 18.1875ZM88.5703 31.9688C88.5703 32.3281 88.375 32.6719 87.9844 33C87.6094 33.3281 87.1172 33.6328 86.5078 33.9141C85.9141 34.1797 85.25 34.4297 84.5156 34.6641C83.7969 34.8828 83.0859 35.0703 82.3828 35.2266C81.6953 35.3828 81.0625 35.5 80.4844 35.5781C79.9062 35.6719 79.4766 35.7188 79.1953 35.7188C78.6641 35.7188 78.1719 35.6562 77.7188 35.5312C77.2812 35.4062 76.8984 35.2188 76.5703 34.9688C76.2422 34.7031 75.9844 34.3672 75.7969 33.9609C75.625 33.5547 75.5391 33.0625 75.5391 32.4844C75.5391 28.3125 75.5547 24.1562 75.5859 20.0156C75.6172 15.875 75.6328 11.7031 75.6328 7.5C75.6328 6.84375 75.6172 6.19531 75.5859 5.55469C75.5547 4.91406 75.5391 4.26562 75.5391 3.60938C75.5391 3.45312 75.5469 3.27344 75.5625 3.07031C75.5781 2.85156 75.6172 2.65625 75.6797 2.48438C75.7422 2.29688 75.8359 2.14062 75.9609 2.01562C76.0859 1.89063 76.2578 1.82812 76.4766 1.82812C76.6953 1.82812 76.9219 1.85937 77.1562 1.92188C77.4062 1.98438 77.6328 2.07813 77.8359 2.20312C78.0547 2.32812 78.2422 2.48438 78.3984 2.67188C78.5703 2.84375 78.6953 3.04688 78.7734 3.28125C78.8516 3.5625 78.8828 3.86719 78.8672 4.19531C78.8672 4.50781 78.8672 4.82812 78.8672 5.15625C78.9453 9.3125 79 13.4375 79.0312 17.5312C79.0781 21.625 79.1016 25.75 79.1016 29.9062C79.1016 30.375 79.1016 30.8438 79.1016 31.3125C79.1172 31.7812 79.1484 32.25 79.1953 32.7188C79.6172 32.7031 80.1328 32.6328 80.7422 32.5078C81.3516 32.3828 81.9609 32.2266 82.5703 32.0391C83.1953 31.8359 83.7812 31.6094 84.3281 31.3594C84.875 31.1094 85.3047 30.8438 85.6172 30.5625C85.7578 30.4219 85.9062 30.2812 86.0625 30.1406C86.2188 29.9844 86.4141 29.9062 86.6484 29.9062C86.8516 29.9062 87.0625 29.9766 87.2812 30.1172C87.5156 30.2578 87.7266 30.4375 87.9141 30.6562C88.1016 30.8594 88.2578 31.0781 88.3828 31.3125C88.5078 31.5469 88.5703 31.7656 88.5703 31.9688ZM99.6797 1.78125C99.6797 2.10938 99.5781 2.71094 99.375 3.58594C99.1719 4.44531 98.9141 5.45313 98.6016 6.60938C98.2891 7.75 97.9375 8.96875 97.5469 10.2656C97.1562 11.5469 96.7734 12.7812 96.3984 13.9688C96.0234 15.1406 95.6797 16.1875 95.3672 17.1094C95.0547 18.0312 94.8203 18.7031 94.6641 19.125C94.8359 20.5156 94.9531 21.8984 95.0156 23.2734C95.0781 24.6484 95.1484 26.0312 95.2266 27.4219C95.3047 28.5938 95.375 29.7734 95.4375 30.9609C95.5156 32.1484 95.5547 33.3281 95.5547 34.5C95.5547 34.8594 95.4609 35.1406 95.2734 35.3438C95.1016 35.5312 94.8359 35.625 94.4766 35.625C94.3359 35.625 94.1484 35.6016 93.9141 35.5547C93.6797 35.5234 93.4375 35.4688 93.1875 35.3906C92.9531 35.3281 92.7266 35.25 92.5078 35.1562C92.3047 35.0625 92.1641 34.9688 92.0859 34.875C91.8984 34.6562 91.7812 34.4531 91.7344 34.2656C91.6875 34.0625 91.6641 33.8281 91.6641 33.5625C91.6641 31.1406 91.6406 28.7344 91.5938 26.3438C91.5469 23.9531 91.5234 21.5469 91.5234 19.125L91.3359 18.9375C91.2422 18.7969 91.1328 18.6016 91.0078 18.3516C90.8984 18.0859 90.7812 17.8125 90.6562 17.5312C90.5469 17.25 90.4453 16.9766 90.3516 16.7109C90.2578 16.4453 90.1797 16.2344 90.1172 16.0781C89.6016 14.6406 89.1172 13.2031 88.6641 11.7656C88.2109 10.3281 87.7266 8.89062 87.2109 7.45312C87.1328 7.20312 87.0078 6.86719 86.8359 6.44531C86.6641 6.00781 86.4922 5.55469 86.3203 5.08594C86.1484 4.61719 86 4.17969 85.875 3.77344C85.7344 3.35156 85.6641 3.03125 85.6641 2.8125C85.6641 2.64063 85.7109 2.5 85.8047 2.39062C85.8984 2.28125 86.0156 2.20312 86.1562 2.15625C86.2969 2.09375 86.4453 2.05469 86.6016 2.03906C86.7578 2.02344 86.8984 2.01562 87.0234 2.01562C87.4297 2.01562 87.8047 2.03906 88.1484 2.08594C88.5078 2.11719 88.8672 2.25 89.2266 2.48438C89.3203 2.54688 89.4688 2.83594 89.6719 3.35156C89.875 3.86719 90.1016 4.50781 90.3516 5.27344C90.6016 6.03906 90.8594 6.86719 91.125 7.75781C91.4062 8.64844 91.6641 9.50781 91.8984 10.3359C92.1328 11.1641 92.3438 11.8984 92.5312 12.5391C92.7188 13.1797 92.8516 13.625 92.9297 13.875C93.4453 11.875 93.9609 9.89062 94.4766 7.92188C95.0078 5.95312 95.4609 3.95313 95.8359 1.92188C95.8672 1.73438 95.8984 1.53125 95.9297 1.3125C95.9766 1.07812 96.0312 0.867188 96.0938 0.679688C96.1719 0.492188 96.2812 0.335937 96.4219 0.210938C96.5625 0.0703125 96.7578 0 97.0078 0C97.2109 0 97.4609 0.046875 97.7578 0.140625C98.0703 0.234375 98.3672 0.367188 98.6484 0.539062C98.9297 0.695313 99.1719 0.882813 99.375 1.10156C99.5781 1.30469 99.6797 1.53125 99.6797 1.78125Z" fill="#FEFAE0"/>
</svg>
