<svg width="68" height="50" viewBox="0 0 68 50" fill="none" xmlns="http://www.w3.org/2000/svg">
<path d="M18.5625 34.0781C18.5625 34.3906 18.4844 34.6406 18.3281 34.8281C18.1875 35.0156 17.9375 35.1094 17.5781 35.1094C17.3906 35.1094 17.1953 35.0859 16.9922 35.0391C16.7891 35.0078 16.5938 34.9531 16.4062 34.875C16.0156 34.7656 15.7031 34.6641 15.4688 34.5703C15.25 34.4766 15.0781 34.3516 14.9531 34.1953C14.8438 34.0547 14.7734 33.8672 14.7422 33.6328C14.7109 33.3984 14.6875 33.0781 14.6719 32.6719C14.5469 29.4688 14.4062 26.2969 14.25 23.1562C14.1094 20 13.875 16.8281 13.5469 13.6406C13.3281 14.7188 13.1172 15.7969 12.9141 16.875C12.7109 17.9531 12.5 19.0469 12.2812 20.1562C12.0625 21.3125 11.8516 22.4922 11.6484 23.6953C11.4609 24.8984 11.1562 26.0625 10.7344 27.1875C10.5625 27.6406 10.3516 28 10.1016 28.2656C9.85156 28.5156 9.46875 28.6406 8.95312 28.6406C8.57812 28.6406 8.27344 28.5781 8.03906 28.4531C7.80469 28.3125 7.57812 28.1094 7.35938 27.8438C7.15625 27.625 6.9375 27.2031 6.70312 26.5781C6.46875 25.9531 6.21875 25.2266 5.95312 24.3984C5.70312 23.5547 5.45312 22.6562 5.20312 21.7031C4.95312 20.75 4.71875 19.8359 4.5 18.9609C4.28125 18.0703 4.08594 17.2578 3.91406 16.5234C3.74219 15.7891 3.60938 15.2344 3.51562 14.8594V18.0469C3.51562 20.125 3.55469 22.1953 3.63281 24.2578C3.71094 26.3203 3.84375 28.375 4.03125 30.4219C4.07812 30.875 4.14062 31.3281 4.21875 31.7812C4.3125 32.2344 4.35938 32.6875 4.35938 33.1406C4.35938 33.5469 4.21875 33.8125 3.9375 33.9375C3.67188 34.0625 3.375 34.125 3.04688 34.125C2.15625 34.125 1.46875 33.9375 0.984375 33.5625C0.515625 33.1719 0.28125 32.5156 0.28125 31.5938C0.28125 29.7031 0.234375 27.8281 0.140625 25.9688C0.046875 24.1094 0 22.2344 0 20.3438C0 20.0781 0 19.6172 0 18.9609C0.015625 18.3047 0.03125 17.5312 0.046875 16.6406C0.0625 15.7344 0.078125 14.7578 0.09375 13.7109C0.125 12.6484 0.15625 11.5781 0.1875 10.5C0.21875 9.42188 0.25 8.375 0.28125 7.35938C0.3125 6.32812 0.34375 5.40625 0.375 4.59375C0.40625 3.78125 0.4375 3.10938 0.46875 2.57812C0.515625 2.03125 0.5625 1.70313 0.609375 1.59375C0.6875 1.375 0.773438 1.23438 0.867188 1.17188C0.976562 1.10937 1.14062 1.07812 1.35938 1.07812C1.95312 1.07812 2.44531 1.21094 2.83594 1.47656C3.24219 1.72656 3.51562 2.15625 3.65625 2.76562C3.875 3.09375 4.125 3.69531 4.40625 4.57031C4.6875 5.42969 4.98438 6.4375 5.29688 7.59375C5.60938 8.75 5.92188 10 6.23438 11.3438C6.5625 12.6719 6.86719 13.9531 7.14844 15.1875C7.44531 16.4219 7.71094 17.5547 7.94531 18.5859C8.19531 19.6172 8.39062 20.4062 8.53125 20.9531C8.98438 18.2656 9.44531 15.5938 9.91406 12.9375C10.3828 10.2812 10.8281 7.60938 11.25 4.92188C11.3281 4.46875 11.4062 4.02344 11.4844 3.58594C11.5781 3.14844 11.625 2.70312 11.625 2.25C11.625 1.96875 11.5859 1.71094 11.5078 1.47656C11.4297 1.22656 11.3906 0.96875 11.3906 0.703125C11.3906 0.375 11.4922 0.179688 11.6953 0.117188C11.9141 0.0390625 12.1562 0 12.4219 0C12.6719 0 12.9688 0.0390625 13.3125 0.117188C13.6562 0.195312 13.9844 0.3125 14.2969 0.46875C14.625 0.625 14.8984 0.820312 15.1172 1.05469C15.3516 1.28906 15.4688 1.5625 15.4688 1.875C15.4688 2.42187 15.4219 3 15.3281 3.60938C15.8906 6.25 16.3594 8.89844 16.7344 11.5547C17.1094 14.1953 17.3906 16.8594 17.5781 19.5469C17.7656 21.8594 17.9141 24.1562 18.0234 26.4375C18.1484 28.7188 18.2969 31 18.4688 33.2812C18.5 33.4219 18.5234 33.5547 18.5391 33.6797C18.5547 33.8047 18.5625 33.9375 18.5625 34.0781ZM23.7656 14.3203C23.7656 14.5859 23.7031 14.7812 23.5781 14.9062C23.4688 15.0156 23.2578 15.0703 22.9453 15.0703C22.8047 15.0703 22.5859 15.0547 22.2891 15.0234C21.9922 14.9766 21.6875 14.9141 21.375 14.8359C21.0781 14.7578 20.8125 14.6484 20.5781 14.5078C20.3594 14.3672 20.25 14.1953 20.25 13.9922C20.25 13.9297 20.2734 13.7578 20.3203 13.4766C20.3672 13.1797 20.4219 12.8672 20.4844 12.5391C20.5625 12.2109 20.625 11.9141 20.6719 11.6484C20.7344 11.3828 20.7812 11.2344 20.8125 11.2031V11.2266C20.8906 11.1016 20.9844 11.0234 21.0938 10.9922C21.2031 10.9609 21.3125 10.9453 21.4219 10.9453C21.5625 10.9453 21.7422 10.9688 21.9609 11.0156C22.1953 11.0469 22.4219 11.1016 22.6406 11.1797C22.875 11.2422 23.0859 11.3281 23.2734 11.4375C23.4609 11.5469 23.5781 11.6641 23.625 11.7891C23.6719 11.9141 23.6953 12.0859 23.6953 12.3047C23.7109 12.5078 23.7109 12.6953 23.6953 12.8672C23.6953 12.9297 23.6875 13.0078 23.6719 13.1016C23.6719 13.1797 23.6719 13.2422 23.6719 13.2891C23.6719 13.3672 23.6719 13.4453 23.6719 13.5234C23.6875 13.6016 23.7031 13.6797 23.7188 13.7578C23.7344 13.8359 23.7422 13.9219 23.7422 14.0156C23.7578 14.1094 23.7656 14.2109 23.7656 14.3203ZM24.6328 33C24.6328 33.3594 24.5469 33.6172 24.375 33.7734C24.2188 33.9141 23.9609 33.9844 23.6016 33.9844C23.4141 33.9844 23.2031 33.9609 22.9688 33.9141C22.75 33.8672 22.5312 33.8047 22.3125 33.7266C22.0938 33.6328 21.8906 33.5234 21.7031 33.3984C21.5156 33.2734 21.375 33.1328 21.2812 32.9766C21.2188 32.8828 21.1641 32.5938 21.1172 32.1094C21.0703 31.625 21.0312 31.0234 21 30.3047C20.9844 29.5859 20.9609 28.7812 20.9297 27.8906C20.9141 27 20.8984 26.1016 20.8828 25.1953C20.8828 24.2891 20.8828 23.4062 20.8828 22.5469C20.8828 21.6875 20.8828 20.9375 20.8828 20.2969V18.4922C20.8828 18.3359 20.8828 18.1797 20.8828 18.0234C20.8984 17.8672 20.9297 17.7344 20.9766 17.625C21.0391 17.5 21.125 17.3984 21.2344 17.3203C21.3594 17.2422 21.5312 17.2031 21.75 17.2031C22.4375 17.2031 22.9375 17.3984 23.25 17.7891C23.5781 18.1641 23.7812 18.6719 23.8594 19.3125C23.9375 20.2656 23.9922 21.2188 24.0234 22.1719C24.0703 23.1094 24.1094 24.0625 24.1406 25.0312C24.1719 25.9062 24.1953 26.7734 24.2109 27.6328C24.2422 28.4766 24.2969 29.3203 24.375 30.1641C24.3906 30.3359 24.4062 30.5 24.4219 30.6562C24.4375 30.8125 24.4609 30.9688 24.4922 31.125C24.5234 31.4375 24.5547 31.75 24.5859 32.0625C24.6172 32.3594 24.6328 32.6719 24.6328 33ZM30.6094 33.9141C30.6094 34.2734 30.5 34.5078 30.2812 34.6172C30.0781 34.7266 29.8281 34.7812 29.5312 34.7812C29.2656 34.7812 29 34.7578 28.7344 34.7109C28.4844 34.6797 28.2422 34.6094 28.0078 34.5C27.7891 34.3906 27.5938 34.2422 27.4219 34.0547C27.2656 33.8672 27.1562 33.625 27.0938 33.3281C26.875 32.3906 26.75 31.4766 26.7188 30.5859C26.6875 29.6797 26.6719 28.75 26.6719 27.7969V24.9141C26.6719 23.6016 26.7266 22.2422 26.8359 20.8359C26.9453 19.4141 27.0625 18.0469 27.1875 16.7344C27.1875 16.6875 27.1953 16.6328 27.2109 16.5703C27.2266 16.5078 27.2344 16.4609 27.2344 16.4297C27.25 16.2578 27.2734 16.0703 27.3047 15.8672C27.3359 15.6641 27.3828 15.4844 27.4453 15.3281C27.5234 15.1562 27.625 15.0156 27.75 14.9062C27.8906 14.7969 28.0703 14.7422 28.2891 14.7422C28.5391 14.7422 28.7734 14.7969 28.9922 14.9062C29.2266 15 29.4297 15.1328 29.6016 15.3047C29.7734 15.4609 29.9062 15.6562 30 15.8906C30.1094 16.125 30.1641 16.3672 30.1641 16.6172C30.1641 16.8828 30.1562 17.1797 30.1406 17.5078C30.125 17.8203 30.1016 18.1172 30.0703 18.3984C30.0703 18.4766 30.0625 18.5625 30.0469 18.6562C30.0469 18.75 30.0391 18.8359 30.0234 18.9141C30.2422 18.4766 30.4922 18.0234 30.7734 17.5547C31.0547 17.0703 31.375 16.6328 31.7344 16.2422C32.1094 15.8359 32.5156 15.5078 32.9531 15.2578C33.4062 15.0078 33.9062 14.8828 34.4531 14.8828C34.9062 14.8828 35.2812 14.9531 35.5781 15.0938C35.875 15.2344 36.1094 15.4375 36.2812 15.7031C36.4688 15.9531 36.5938 16.25 36.6562 16.5938C36.7344 16.9375 36.7734 17.3047 36.7734 17.6953C36.7734 18.2266 36.7578 18.7656 36.7266 19.3125C36.6953 19.8438 36.6641 20.375 36.6328 20.9062C36.5859 21.4531 36.5469 21.9922 36.5156 22.5234C36.4844 23.0547 36.4688 23.5938 36.4688 24.1406C36.4688 24.7969 36.4844 25.4766 36.5156 26.1797C36.5469 26.8672 36.5938 27.5312 36.6562 28.1719C36.7188 28.7969 36.7891 29.3672 36.8672 29.8828C36.9453 30.3828 37.0234 30.7734 37.1016 31.0547C37.1641 31.2891 37.2266 31.5625 37.2891 31.875C37.3672 32.1719 37.4375 32.4844 37.5 32.8125C37.5781 33.125 37.6406 33.4297 37.6875 33.7266C37.7344 34.0234 37.7578 34.2891 37.7578 34.5234C37.7578 34.8672 37.6172 35.0859 37.3359 35.1797C37.0703 35.2734 36.8047 35.3203 36.5391 35.3203C36.2734 35.3203 35.9688 35.2969 35.625 35.25C35.2969 35.2188 35 35.1328 34.7344 34.9922C34.4062 34.7578 34.1875 34.4297 34.0781 34.0078C33.9844 33.5859 33.9219 33.1719 33.8906 32.7656L33.8203 32.1328C33.7734 31.7578 33.7109 31.2656 33.6328 30.6562C33.5547 30.0469 33.4766 29.375 33.3984 28.6406C33.3359 27.9062 33.2812 27.1484 33.2344 26.3672C33.1875 25.5703 33.1641 24.7969 33.1641 24.0469C33.1641 23.375 33.1875 22.7266 33.2344 22.1016C33.2969 21.4766 33.3594 20.8438 33.4219 20.2031C33.4531 19.875 33.4766 19.6094 33.4922 19.4062C33.5078 19.2031 33.5312 18.9375 33.5625 18.6094C33.25 19.1094 32.9375 19.6953 32.625 20.3672C32.3125 21.0391 32.0156 21.7422 31.7344 22.4766C31.4531 23.1953 31.1953 23.8984 30.9609 24.5859C30.7422 25.2734 30.5703 25.875 30.4453 26.3906L30.3047 26.9062C30.2266 27.1562 30.1562 27.4062 30.0938 27.6562C30.0469 27.9062 30.0234 28.1406 30.0234 28.3594C30.0234 28.6406 30.0391 28.9688 30.0703 29.3438C30.1016 29.7031 30.1406 30.0469 30.1875 30.375C30.2344 30.7656 30.2891 31.1641 30.3516 31.5703C30.3516 31.6016 30.3672 31.7031 30.3984 31.875C30.4297 32.0469 30.4609 32.25 30.4922 32.4844C30.5234 32.7188 30.5469 32.9688 30.5625 33.2344C30.5938 33.4844 30.6094 33.7109 30.6094 33.9141ZM50.0156 33.3047C50.0156 33.4766 49.9766 33.625 49.8984 33.75C49.8203 33.8594 49.7188 33.9531 49.5938 34.0312C49.4844 34.0938 49.3594 34.1406 49.2188 34.1719C49.0938 34.2031 48.9688 34.2188 48.8438 34.2188C48.6562 34.2188 48.4531 34.1953 48.2344 34.1484C48.0156 34.1016 47.7969 34.0391 47.5781 33.9609C47.3594 33.8672 47.1562 33.7578 46.9688 33.6328C46.7969 33.4922 46.6641 33.3359 46.5703 33.1641C46.4766 32.9922 46.4062 32.7812 46.3594 32.5312C46.3281 32.2656 46.2969 32 46.2656 31.7344C46.1094 32.1094 45.9219 32.4766 45.7031 32.8359C45.5 33.1953 45.25 33.5156 44.9531 33.7969C44.6562 34.0625 44.3203 34.2734 43.9453 34.4297C43.5859 34.6016 43.1797 34.6875 42.7266 34.6875C41.9297 34.6875 41.2812 34.5 40.7812 34.125C40.2969 33.75 39.9141 33.2812 39.6328 32.7188C39.3672 32.1406 39.1875 31.5156 39.0938 30.8438C39.0156 30.1562 38.9766 29.5 38.9766 28.875C38.9766 28.3594 39 27.7734 39.0469 27.1172C39.0938 26.4609 39.1562 25.7891 39.2344 25.1016C39.3125 24.4141 39.4062 23.75 39.5156 23.1094C39.625 22.4531 39.7422 21.875 39.8672 21.375C40.0234 20.7969 40.2109 20.1641 40.4297 19.4766C40.6641 18.7734 40.9531 18.125 41.2969 17.5312C41.6562 16.9219 42.0938 16.4062 42.6094 15.9844C43.125 15.5625 43.7422 15.3281 44.4609 15.2812C44.4141 14.0156 44.3438 12.8516 44.25 11.7891C44.1719 10.7109 44.0859 9.60938 43.9922 8.48438L43.7578 5.88281L43.6641 4.94531C43.6328 4.69531 43.6094 4.44531 43.5938 4.19531C43.5781 3.92969 43.5703 3.67188 43.5703 3.42188C43.5703 3.0625 43.6641 2.8125 43.8516 2.67188C44.0547 2.53125 44.3125 2.46094 44.625 2.46094C45.3125 2.46094 45.8359 2.5625 46.1953 2.76562C46.5547 2.96875 46.8047 3.24219 46.9453 3.58594C47.1016 3.92969 47.1875 4.33594 47.2031 4.80469C47.2188 5.25781 47.2266 5.75 47.2266 6.28125C47.2266 6.625 47.2656 7.01562 47.3438 7.45312L47.4609 8.32031L47.6484 10.7109C47.6797 11.0859 47.7109 11.4609 47.7422 11.8359C47.7734 12.2109 47.8047 12.5859 47.8359 12.9609L48.3281 18L49.2656 27.4219L49.3359 28.2891C49.3984 28.9297 49.4531 29.5938 49.5 30.2812C49.5625 30.9688 49.6719 31.6484 49.8281 32.3203C49.875 32.4922 49.9141 32.6562 49.9453 32.8125C49.9922 32.9688 50.0156 33.1328 50.0156 33.3047ZM44.5547 19.5938C44.5547 19.4219 44.5469 19.2344 44.5312 19.0312C44.5312 18.8125 44.5312 18.6094 44.5312 18.4219V17.7891C44.4219 17.9453 44.2812 18.1641 44.1094 18.4453C43.9375 18.7109 43.8047 18.9531 43.7109 19.1719C43.4609 19.7188 43.2344 20.4219 43.0312 21.2812C42.8281 22.125 42.6484 23.0156 42.4922 23.9531C42.3516 24.875 42.2422 25.7812 42.1641 26.6719C42.0859 27.5469 42.0469 28.2812 42.0469 28.875C42.0469 29.0938 42.0469 29.3438 42.0469 29.625C42.0625 29.9062 42.0938 30.1953 42.1406 30.4922C42.1875 30.7734 42.2578 31.0469 42.3516 31.3125C42.4453 31.5781 42.5703 31.7969 42.7266 31.9688C42.9609 31.6719 43.1719 31.2188 43.3594 30.6094C43.5469 29.9844 43.7031 29.2812 43.8281 28.5C43.9688 27.7031 44.0859 26.8672 44.1797 25.9922C44.2734 25.1172 44.3438 24.2734 44.3906 23.4609C44.4531 22.6328 44.4922 21.8828 44.5078 21.2109C44.5391 20.5234 44.5547 19.9844 44.5547 19.5938ZM57.6328 34.7109C57.6328 34.9297 57.5781 35.1094 57.4688 35.25C57.3594 35.3906 57.2188 35.5 57.0469 35.5781C56.8906 35.6719 56.7109 35.7344 56.5078 35.7656C56.3203 35.8125 56.1484 35.8359 55.9922 35.8359C55.4453 35.8359 54.9688 35.6797 54.5625 35.3672C54.1562 35.0547 53.8047 34.6484 53.5078 34.1484C53.2109 33.6641 52.9688 33.1094 52.7812 32.4844C52.5938 31.8438 52.4375 31.2109 52.3125 30.5859C52.1875 29.9453 52.0938 29.3359 52.0312 28.7578C51.9688 28.1641 51.9219 27.6562 51.8906 27.2344C51.75 25.7812 51.6484 24.3047 51.5859 22.8047C51.5391 21.3047 51.5156 19.8203 51.5156 18.3516C51.5156 14.3359 51.6562 10.3594 51.9375 6.42188C51.9375 6.35937 51.9375 6.28906 51.9375 6.21094C51.9531 6.13281 51.9609 6.05469 51.9609 5.97656C51.9766 5.64844 51.9922 5.27344 52.0078 4.85156C52.0234 4.41406 52.0469 3.98438 52.0781 3.5625C52.1094 3.14062 52.1406 2.75781 52.1719 2.41406C52.2188 2.05469 52.2734 1.80469 52.3359 1.66406V1.6875C52.3984 1.46875 52.4844 1.30469 52.5938 1.19531C52.7031 1.08594 52.8906 1.03125 53.1562 1.03125C53.7188 1.03125 54.1953 1.21875 54.5859 1.59375C54.9766 1.96875 55.1719 2.4375 55.1719 3C55.1719 3.125 55.1641 3.25 55.1484 3.375C55.1484 3.48438 55.1406 3.59375 55.125 3.70312C55.1094 3.8125 55.0938 3.92187 55.0781 4.03125C55.0781 4.125 55.0781 4.21094 55.0781 4.28906C55.0312 4.89844 54.9922 5.50781 54.9609 6.11719C54.9453 6.71094 54.9219 7.3125 54.8906 7.92188C54.8125 9.26562 54.75 10.6094 54.7031 11.9531C54.6719 13.2812 54.6562 14.625 54.6562 15.9844C54.6562 16.5625 54.6641 17.3203 54.6797 18.2578C54.6953 19.1953 54.7266 20.2188 54.7734 21.3281C54.8203 22.4219 54.8828 23.5547 54.9609 24.7266C55.0547 25.8984 55.1719 27.0156 55.3125 28.0781C55.4531 29.1406 55.6172 30.1016 55.8047 30.9609C56.0078 31.8203 56.2422 32.4844 56.5078 32.9531C56.6484 33.0156 56.7812 33.1172 56.9062 33.2578C57.0469 33.3828 57.1641 33.5312 57.2578 33.7031C57.3672 33.8594 57.4531 34.0234 57.5156 34.1953C57.5938 34.3828 57.6328 34.5547 57.6328 34.7109ZM67.1719 35.625C67.1719 36.2656 67.1484 36.9375 67.1016 37.6406C67.0547 38.3438 66.9766 39.0469 66.8672 39.75C66.7578 40.4688 66.6094 41.1719 66.4219 41.8594C66.2344 42.5469 66 43.1875 65.7188 43.7812C65.25 44.6562 64.6562 45.4219 63.9375 46.0781C63.2344 46.75 62.4609 47.3125 61.6172 47.7656C60.7734 48.2188 59.875 48.5625 58.9219 48.7969C57.9688 49.0312 57.0078 49.1484 56.0391 49.1484C55.8984 49.1484 55.7344 49.1406 55.5469 49.125C55.3438 49.1094 55.1484 49.0703 54.9609 49.0078C54.7734 48.9609 54.6172 48.875 54.4922 48.75C54.3672 48.625 54.3047 48.4531 54.3047 48.2344C54.3047 48.1406 54.3281 48.0469 54.375 47.9531C54.375 47.9219 54.3828 47.8906 54.3984 47.8594C54.3984 47.8438 54.3984 47.8281 54.3984 47.8125C54.5078 47.5 54.6328 47.25 54.7734 47.0625C54.9141 46.875 55.0781 46.7266 55.2656 46.6172C55.4375 46.5234 55.6484 46.4531 55.8984 46.4062C56.1328 46.375 56.4062 46.3438 56.7188 46.3125C57.7188 46.2656 58.6641 46.0312 59.5547 45.6094V45.6328C60.5703 45.1328 61.3672 44.5078 61.9453 43.7578C62.5391 43.0234 62.9844 42.2031 63.2812 41.2969C63.5938 40.4062 63.7891 39.4609 63.8672 38.4609C63.9453 37.4609 63.9844 36.4531 63.9844 35.4375C63.9844 35.2031 63.9844 35.0312 63.9844 34.9219C63.9844 34.8125 63.9844 34.7109 63.9844 34.6172C63.9844 34.5391 63.9844 34.4453 63.9844 34.3359C63.9844 34.2266 63.9766 34.0547 63.9609 33.8203C63.4141 34.2422 62.8438 34.4531 62.25 34.4531C61.5625 34.4531 60.9766 34.2656 60.4922 33.8906C60.0234 33.5 59.625 33 59.2969 32.3906C58.9844 31.7656 58.7344 31.0625 58.5469 30.2812C58.375 29.4844 58.2422 28.6797 58.1484 27.8672C58.0703 27.0391 58.0156 26.2344 57.9844 25.4531C57.9688 24.6719 57.9609 23.9766 57.9609 23.3672V22.3828C57.9609 21.5547 57.9609 20.7422 57.9609 19.9453C57.9766 19.1484 58.0078 18.3516 58.0547 17.5547V17.2031C58.0547 17.0156 58.0547 16.8281 58.0547 16.6406C58.0547 16.4531 58.0703 16.2734 58.1016 16.1016C58.1641 15.8516 58.25 15.6719 58.3594 15.5625C58.4844 15.4531 58.6797 15.3984 58.9453 15.3984C59.0703 15.3984 59.1875 15.4062 59.2969 15.4219C59.4219 15.4375 59.5469 15.4609 59.6719 15.4922C59.9688 15.6172 60.2031 15.75 60.375 15.8906C60.5469 16.0156 60.6719 16.1719 60.75 16.3594C60.8438 16.5312 60.8984 16.7344 60.9141 16.9688C60.9453 17.2031 60.9609 17.4766 60.9609 17.7891V20.9297C60.9609 21.3047 60.9609 21.7734 60.9609 22.3359C60.9766 22.8828 61 23.4844 61.0312 24.1406C61.0625 24.7969 61.1016 25.4766 61.1484 26.1797C61.1953 26.8828 61.2656 27.5625 61.3594 28.2188C61.4531 28.875 61.5625 29.4766 61.6875 30.0234C61.8125 30.5703 61.9688 31.0234 62.1562 31.3828C62.4375 30.7734 62.6797 30.0625 62.8828 29.25C63.0859 28.4219 63.25 27.5391 63.375 26.6016C63.5156 25.6484 63.6172 24.6719 63.6797 23.6719C63.7578 22.6719 63.8125 21.6953 63.8438 20.7422C63.8906 19.7891 63.9141 18.8906 63.9141 18.0469C63.9297 17.1875 63.9375 16.4375 63.9375 15.7969C63.9375 15.6406 63.9375 15.4766 63.9375 15.3047C63.9531 15.1172 63.9922 14.9531 64.0547 14.8125C64.1172 14.6562 64.2031 14.5312 64.3125 14.4375C64.4375 14.3438 64.6172 14.2969 64.8516 14.2969C64.9609 14.2969 65.0781 14.3125 65.2031 14.3438C65.3438 14.375 65.4609 14.4062 65.5547 14.4375C65.5859 14.4375 65.6172 14.4453 65.6484 14.4609C65.6953 14.4609 65.7344 14.4609 65.7656 14.4609C65.9844 14.5391 66.1953 14.6172 66.3984 14.6953C66.6016 14.7734 66.7734 14.875 66.9141 15C67.0703 15.1094 67.1875 15.2578 67.2656 15.4453C67.3594 15.6328 67.4062 15.875 67.4062 16.1719C67.4062 16.5312 67.3984 16.9453 67.3828 17.4141C67.3828 17.8672 67.3672 18.3438 67.3359 18.8438C67.3203 19.3438 67.2969 19.8359 67.2656 20.3203C67.2344 20.7891 67.2031 21.2109 67.1719 21.5859L67.0781 22.4062C67.0469 22.625 67.0234 22.8438 67.0078 23.0625C66.9922 23.2812 66.9844 23.4844 66.9844 23.6719C66.9844 24.6719 66.9922 25.6719 67.0078 26.6719C67.0234 27.6562 67.0469 28.6484 67.0781 29.6484C67.1094 30.6484 67.1328 31.6484 67.1484 32.6484C67.1641 33.6328 67.1719 34.625 67.1719 35.625Z" fill="#FEFAE0"/>
</svg>
