<svg width="1280" height="102" viewBox="0 0 1280 102" fill="none" xmlns="http://www.w3.org/2000/svg">
<path d="M1279.99 -19.5302V99.6806C1277.89 99.6343 1275.8 99.5705 1273.81 99.3156C1271.35 99.0026 1270.01 98.6086 1270.2 97.7857C1270.54 96.2965 1264.12 94.784 1258.81 94.8825C1253.78 94.9868 1248.62 95.039 1243.63 94.8535C1240.02 94.7145 1236.02 94.9752 1232.71 94.2451C1231.52 93.9785 1230.09 94.2972 1228.94 94.4943C1226.27 94.9579 1224.19 95.5953 1222.34 96.2965C1221.55 96.5978 1220.77 97.0382 1219.15 96.8817C1216.32 96.6152 1214.26 96.9455 1211.99 97.3337C1208.41 97.9538 1204.75 97.9422 1201.53 97.1251C1199.46 96.5978 1197.39 96.4935 1195 96.8933C1193.64 97.1251 1193.68 97.5365 1193.25 97.8958C1192.95 98.145 1192.36 98.3304 1191.36 98.2725C1190.45 98.2203 1189.67 98.0117 1189.89 97.7683C1190.74 96.8354 1188.71 96.2327 1187.02 95.5663C1186.34 95.3055 1185.83 94.9694 1185.66 94.6507C1185.38 94.106 1184.19 93.8279 1182.69 93.5555C1179.53 92.9818 1176.41 92.3908 1173.35 91.7649C1169.27 90.942 1164.73 90.9363 1160.05 91.1391C1158.07 91.2202 1156.74 91.6085 1155.45 92.0025C1154.75 92.1995 1154.71 92.3965 1155.5 92.582C1159.02 93.8279 1158.24 95.0564 1152.81 96.1458C1150.48 96.6152 1147.69 96.9223 1144.99 97.2178C1143.19 97.4091 1141.33 97.2642 1139.52 97.0266C1134.22 96.337 1133.35 96.4413 1130.22 97.9016C1129.43 98.2725 1128.54 98.626 1127.53 98.9505C1125.77 99.5126 1121.81 99.7096 1119.46 99.3909C1117.37 99.1127 1116.38 98.4985 1118.06 97.8031C1121.3 96.4703 1119.42 95.6301 1115.62 94.8014C1113.33 94.3088 1112.07 93.6482 1112.2 92.808C1112.23 92.6399 1111.99 92.4139 1111.05 92.4255C1110.3 92.4313 1109.67 92.553 1109.48 92.7384C1108.92 93.289 1107.91 93.8105 1107.4 94.332C1105.48 96.3602 1098.78 97.5192 1096.09 99.3793C1095.91 99.5126 1095.57 99.6343 1095.19 99.727C1092.58 100.399 1082.94 99.9356 1081.59 99.0084C1080.57 98.3073 1079.27 98.1334 1076.87 98.3768C1072.38 98.8346 1067.94 99.1243 1064.06 97.9596C1063.14 97.6872 1061.78 97.8089 1060.61 97.8669C1057.02 98.0407 1053.45 98.0639 1049.85 97.8669C1047.79 97.7568 1045.73 97.9016 1043.71 98.0175C1039.61 98.2667 1035.89 98.1044 1032.63 97.3048C1031.22 96.9513 1029.55 96.6905 1028.14 96.3428C1026.23 95.8792 1024.19 95.5837 1021.58 95.6996C1019.66 95.7865 1017.77 95.7054 1016.02 95.4968C1011.31 94.9347 1006.28 95.0274 1001.35 94.8883C998.733 94.8188 997.044 95.0795 996.294 95.7981C995.712 96.3602 994.689 96.8586 993.282 97.2874C990.993 97.9943 988.469 98.3942 984.744 98.3304C980.212 98.2609 975.483 98.0523 971.28 98.8867C970.295 99.078 968.615 99.02 967.255 99.0374C965.116 99.0722 963.333 99.2866 961.56 99.6227C956.399 100.596 951.023 100.973 945.375 99.8834C943.761 99.5705 941.875 99.472 939.952 99.5184C933.666 99.698 929.716 98.6028 926.244 97.438C922.247 96.1052 916.468 95.5026 910.407 96.0473C906.091 96.4355 904.318 96.2443 901.972 95.1259C901.015 94.6739 900.002 94.2277 899.157 93.7583C898.013 93.1209 896.324 92.6863 893.847 92.4951C893.622 92.4777 893.387 92.4545 893.162 92.4371C889.756 92.1532 886.641 91.6838 883.545 91.197C879.886 90.6233 878.929 90.6871 875.926 91.5273C875.438 91.6606 875.007 91.8171 874.519 91.9503C874.125 92.0605 873.768 92.1532 873.449 92.2459C870.531 93.0572 870.775 93.1673 873.262 94.332C873.534 94.4595 873.806 94.5812 874.087 94.7029C875.26 95.2186 877.305 95.8097 875.129 96.3428C873.365 96.7774 870.869 96.4181 868.861 96.1516C866.356 95.8155 865.015 95.2592 864.555 94.4769C864.236 93.9148 862.828 93.9496 861.562 94.2799C860.961 94.4363 860.633 94.6739 860.145 94.8709C858.775 95.4388 857.265 95.5895 854.956 95.1781C850.96 94.4711 847.76 94.7203 845.18 95.8445C842.994 96.8064 842.103 96.8875 838.762 96.2443C836.342 95.7749 833.884 95.3577 831.059 95.1085C829.943 95.0158 829.023 94.8304 828.179 94.5986C828.02 94.5522 827.86 94.5117 827.71 94.4653C824.276 93.4338 823.253 93.3759 819.697 94.2914C819.51 94.3436 819.313 94.3958 819.106 94.4479C818.168 94.6971 817.305 94.9579 816.057 94.7087C813.655 94.2219 811.994 94.587 810.099 94.981C805.464 95.9372 799.985 96.4008 794.524 96.789C790.809 97.0556 787.159 96.8006 783.603 96.2965C776.876 95.3403 773.095 95.6996 769.257 97.5655C767.981 98.1856 766.245 98.4985 763.834 98.4521C758.908 98.3652 753.823 98.6434 749.123 97.9712C747.434 97.7336 745.773 97.8263 744.197 98.0755C743.155 98.2435 742.198 98.4521 741.147 98.6086C737.685 99.1417 735.302 98.9389 733.52 97.9769C729.326 95.7112 721.932 94.6971 712.794 95.1491C709.979 95.2882 707.342 95.207 704.781 94.8478C702.792 94.5696 700.812 94.2972 698.485 94.2509C692.931 94.1292 692.349 94.2045 689.703 95.6011C687.123 96.9629 681.344 97.6351 676.296 96.9802C670.404 96.2095 664.812 96.8064 659.342 97.1715C656.518 97.3627 654.163 97.5134 651.479 97.1889C648.327 96.8006 645.212 96.5514 641.572 96.8528C638.963 97.0672 636.017 96.9049 633.681 96.4297C631.091 95.9198 628.699 96.0241 625.922 96.3196C621.775 96.7658 617.459 97.0903 613.227 97.4728C611.473 97.6409 609.896 97.5597 608.264 97.3337C606.434 97.073 604.558 96.7774 602.578 96.6731C596.808 96.3486 592.267 95.3925 587.707 94.4711C585.474 94.0191 583.372 93.7641 580.614 93.8337C577.527 93.9148 574.384 93.8684 571.372 93.6772C568.942 93.5265 566.925 93.5903 565.292 94.1176C563.153 94.8188 560.592 94.9521 557.411 94.7782C553.001 94.5406 552.044 94.8478 553.189 96.0473C553.761 96.6441 554.127 97.1889 552.147 97.6119C550.252 98.0117 548.244 97.8668 546.293 97.6177C545.204 97.4786 544.116 97.3337 543.028 97.1889C541.151 96.9455 539.462 96.847 538.224 97.4902C537.164 98.0407 535.456 98.0001 533.795 97.7394C531.741 97.4149 529.423 97.1251 528.269 96.6499C527.49 96.3312 527.228 95.9314 527.903 95.3635C526.064 95.1085 525.023 95.3171 524.094 95.5142C520.951 96.2037 517.32 96.4008 513.661 96.3022C513.051 96.2907 512.441 96.2733 511.831 96.2385C510.649 96.1806 509.532 96.1516 508.425 96.1458C507.656 96.1458 506.905 96.1516 506.145 96.169C504.297 96.2211 502.439 96.3254 500.45 96.4761C495.656 96.8354 491.668 97.5076 487.362 98.0697C486.893 98.1276 486.452 98.2087 486.011 98.2783C478.814 99.4604 478.692 99.4952 472.2 97.9769C469.732 97.3975 467.302 97.1773 464.703 97.5771C458.361 98.5391 453.576 97.4033 448.406 96.76C447.43 96.6384 447.167 96.3138 446.614 96.0705C444.625 95.1954 441.219 94.9347 437.991 94.7203C436.068 94.5986 433.563 94.8362 432.437 95.3171C429.04 96.7658 423.167 97.0556 418.279 97.7915C415.717 98.1798 413.09 98.4985 410.754 99.0084C406.579 99.924 401.766 100.185 396.69 99.7212C392.449 99.3329 388.236 99.3156 383.986 99.5937C381.077 99.7791 378.15 99.8545 375.307 99.6401C371.789 99.3793 368.458 99.8429 365.137 99.7618C361.872 99.6806 359.226 98.8578 355.435 99.0084C353.69 99.0722 351.785 98.794 349.937 98.6839C345.959 98.4405 344.805 98.5622 343.313 99.6285C342.525 100.191 341.483 100.237 339.766 100.098C337.271 99.9008 334.925 99.6285 332.57 99.3213C328.16 98.7535 326.425 99.1185 327.016 100.411C327.551 101.558 326.762 101.755 323.141 101.321C320.776 101.037 318.243 100.793 316.235 100.364C311.769 99.4083 306.956 98.8346 301.336 98.6144C297.527 98.4695 293.98 98.5448 290.199 98.626C284.982 98.7419 279.663 99.5415 274.305 98.6955C272.72 98.4405 270.993 98.6781 269.314 98.8056C264.153 99.1997 262.68 98.8114 263.59 97.3569C264.144 96.4645 259.678 94.5522 256.713 94.4479C256.113 94.4305 255.334 94.5059 254.827 94.6044C253.364 94.9173 252.069 94.9405 250.736 94.5522C249.526 94.2045 247.903 94.2567 246.374 94.2567C242.761 94.2625 242.076 94.5001 242.78 95.462C242.883 95.6011 243.062 95.7344 243.184 95.8734C244.722 97.6061 241.626 98.4347 235.406 97.9712C234.533 97.9016 233.52 97.8031 233.435 97.5713C233.051 96.5514 230.386 95.6532 231.746 94.5174C232.947 93.5091 230.893 92.8833 227.271 93.1846C222.655 93.5613 217.738 93.6019 213.329 94.1814C212.559 94.2915 211.724 94.361 210.889 94.4131C207.577 94.6276 206.048 94.3726 205.157 93.4744C203.571 91.875 199.368 91.3013 194.038 92.0025C192.143 92.2575 190.201 92.4313 188.165 92.5182C185.416 92.6399 182.779 92.8312 180.443 93.2658C178.426 93.6424 176.671 93.7178 175.292 93.0282C174.776 92.7732 174.072 92.5298 172.853 92.6457C171.605 92.7616 171.764 93.0861 171.755 93.3643C171.746 93.6482 171.905 93.9438 171.83 94.2219C171.633 94.8999 170.695 95.4156 168.03 95.5663C166.172 95.6764 164.399 95.8445 162.907 96.2095C159.239 97.0961 155.017 97.044 150.767 96.6673C146.676 96.308 142.613 95.9719 141.375 94.5406C140.859 93.9322 138.447 93.625 136.271 93.4222C133.512 93.1788 131.045 93.3759 130.397 94.1292C128.586 96.2211 122.525 96.6557 116.455 97.0034C111.951 97.2642 107.72 97.8726 102.925 97.8089C101.021 97.7915 99.4539 98.2029 98.0841 98.5738C96.7142 98.9505 95.4758 98.9331 94.059 98.5796C90.6813 97.751 86.4123 97.7394 82.3403 97.7625C75.2378 97.7973 71.3347 97.212 68.6044 95.5026C65.9117 93.8105 65.4238 93.6308 59.1751 94.2857C53.6019 94.8651 48.9482 95.1201 44.3883 93.7699C42.8309 93.3121 40.1287 93.2716 38.027 93.5555C35.0528 93.9496 32.1067 93.9785 28.9918 93.8279C28.3256 93.7931 27.5469 93.7699 26.9464 93.8395C23.5406 94.2219 20.6508 93.9901 17.9205 93.3527C16.6726 93.0687 15.0025 93.0861 13.4544 93.1499C10.4239 93.2774 7.63731 93.1731 5.24479 92.582C4.17519 92.3154 2.82412 92.2169 1.40737 92.2401C0.938244 92.2459 0.45974 92.2459 0 92.2401V-18.8812C1.10713 -18.7363 2.1392 -18.5625 2.93671 -18.2669C3.5278 -18.0525 4.86011 -18.0699 5.72329 -18.3075C6.79289 -18.6088 6.37068 -18.9102 5.72329 -19.2231C2.66461 -20.6486 2.66461 -20.7066 6.42697 -22.0336C8.13458 -22.6362 9.84218 -23.2331 10.9024 -23.9517C13.3981 -25.6495 18.9807 -26.0494 24.5351 -26.4376C26.102 -26.5477 26.4303 -26.1769 26.9839 -25.8697C29.1419 -24.6992 32.6697 -24.5717 34.9965 -25.7017C36.7041 -26.5361 38.909 -26.6173 41.7331 -26.6984C44.6886 -26.7737 46.6777 -26.5709 48.967 -25.9567C51.716 -25.2323 55.5065 -24.7977 58.9124 -24.2646C60.0383 -24.0907 61.2674 -24.2588 62.3745 -24.3979C64.0821 -24.6296 65.7522 -24.873 67.5067 -25.0758C71.316 -25.4989 71.5224 -25.4699 72.9297 -24.3979C73.427 -24.0212 74.065 -23.7199 75.3973 -23.5286C77.9681 -23.1636 79.5537 -23.32 80.614 -24.0733C82.209 -25.2033 82.2184 -25.2323 86.3091 -25.1744C89.5273 -25.128 92.3795 -25.2845 94.9973 -25.8581C97.249 -26.3507 100.017 -26.5072 102.822 -26.4202C108.151 -26.2638 113.359 -25.9509 117.862 -25.0643C120.001 -24.647 122.141 -24.2935 124.918 -24.3051C127.113 -24.3109 127.958 -23.9574 127.404 -23.349C126.316 -22.1553 128.962 -21.512 131.598 -20.8862C131.945 -20.8051 132.292 -20.7181 132.63 -20.637C133.728 -20.3647 135.229 -20.411 136.561 -20.5617C139.498 -20.8978 141.909 -20.6718 144.039 -20.0633C144.64 -19.8953 145.334 -19.7098 146.113 -19.6403C149.65 -19.3216 151.47 -18.7189 151.217 -17.6237C151.039 -16.8182 153.309 -16.5227 155.57 -16.4648C158.976 -16.3662 162.466 -16.3431 165.853 -16.4416C168.696 -16.5227 170.32 -17.2876 172.543 -17.7222C176.043 -18.4118 175.968 -18.4698 179.458 -17.8671C180.678 -17.6585 181.888 -17.5194 183.324 -17.5484C186.739 -17.6295 190.248 -17.6179 193.56 -17.8265C197.801 -18.0989 201.985 -18.2727 206.311 -18.1337C208.684 -18.0525 210.017 -18.2322 210.354 -19.0261C210.383 -19.084 210.401 -19.142 210.429 -19.1941C210.899 -20.2082 211.499 -20.1734 215.627 -20.3183C221.829 -20.5327 227.196 -21.1064 229.42 -23.0071C230.855 -24.2356 231.981 -24.3109 236.259 -23.7894C237.385 -23.6561 238.539 -23.4475 239.684 -23.575C243.85 -24.0386 246.993 -23.3838 250.174 -22.8506C252.219 -22.5087 253.964 -22.0278 255.887 -21.6279C256.704 -21.4541 257.923 -21.1528 258.468 -21.2165C262.127 -21.6627 265.26 -20.9152 268.666 -20.9557C269.267 -20.9615 269.867 -21.1296 270.411 -21.2397C276.313 -22.4856 282.768 -23.2331 290.377 -23.1288C293.614 -23.0824 296.889 -23.2331 300.154 -23.2679C303.25 -23.3084 306.243 -23.2737 309.105 -22.7985C312.417 -22.2422 315.832 -22.4102 318.553 -23.1578C321.048 -23.8473 323.835 -24.1487 327.325 -24.1487C330.816 -24.1487 333.687 -24.873 337.336 -24.6818C338.378 -24.6296 339.128 -24.931 339.241 -25.2497C339.363 -25.58 339.241 -25.9335 339.513 -26.2522C339.898 -26.71 341.118 -27.0113 342.788 -27.0519C344.533 -27.0982 345.077 -26.71 345.358 -26.3101C346.334 -24.9078 349.093 -23.969 354.178 -23.6213C354.835 -23.575 355.473 -23.4823 356.036 -23.3722C361.75 -22.3117 367.951 -21.9814 374.679 -22.3523C376.405 -22.445 378.103 -22.3465 379.745 -22.1784C383.939 -21.7554 388.142 -21.3382 392.318 -20.8978C395.17 -20.6022 397.29 -20.1387 398.163 -19.2347C399.064 -18.2959 400.049 -18.1047 403.333 -18.3191C407.254 -18.5683 410.67 -18.5509 414 -17.8149C415.98 -17.3803 418.692 -17.4441 420.99 -17.6179C424.33 -17.8671 427.417 -17.699 430.607 -17.4615C434.895 -17.1312 437.091 -17.5136 437.25 -18.6842C437.372 -19.5708 437.306 -20.4632 440.356 -20.9789C443.64 -21.5294 447.271 -21.8481 451.183 -21.6337C458.52 -21.2397 464.891 -21.8945 470.858 -22.9955C472.659 -23.3258 474.311 -23.4011 476.018 -23.0013C477.726 -22.6015 477.801 -22.1089 476.882 -21.5758C476.187 -21.1759 474.283 -20.7935 475.971 -20.3067C477.641 -19.8373 479.48 -20.2314 481.244 -20.3763C486.48 -20.8051 491.255 -21.6569 496.969 -21.6743C498.33 -21.6743 499.709 -21.9119 500.141 -22.3117C501.417 -23.4997 504.081 -24.5253 504.466 -25.8234C505.001 -27.6487 507.881 -28.0718 514.468 -27.9906C519.909 -27.9211 524.591 -27.1098 529.93 -27.0171C530.849 -26.9997 531.825 -26.7795 532.585 -26.5941C537.408 -25.4351 542.859 -24.5137 548.085 -23.517C551.735 -22.8159 555.356 -22.0683 560.367 -22.3639C562.384 -22.4856 564.711 -22.3001 565.686 -21.7091C567.919 -20.3531 572.113 -20.5037 575.838 -20.7761C580.032 -21.089 583.982 -21.0253 588.054 -20.7935C588.561 -20.7703 589.189 -20.7877 589.546 -20.7066C593.289 -19.8779 597.483 -19.9996 601.781 -20.1966C605.609 -20.382 608.817 -19.7968 612.007 -19.3795C615.864 -18.8696 619.157 -18.8001 622.384 -19.6751C623.951 -20.1039 626.053 -20.2835 628.136 -20.0923C632.283 -19.7041 635.764 -20.1618 638.616 -20.8456C643.082 -21.9177 648.252 -22.4566 653.722 -22.9086C656.293 -23.1172 658.863 -22.9723 661.378 -23.0766C667.092 -23.291 672.412 -23.2679 677.394 -22.2422C679.336 -21.8423 682.198 -21.7438 684.703 -21.599C688.634 -21.3672 692.396 -21.1238 694.892 -20.1155C695.521 -19.8663 696.797 -19.7098 697.894 -19.5882C698.917 -19.4723 699.94 -19.368 700.972 -19.2694C705.719 -18.8174 710.551 -18.5451 715.561 -18.5972C717.016 -18.6146 718.47 -18.661 719.953 -18.7363C721.585 -18.8174 722.908 -18.9913 723.799 -19.3737C724.944 -19.8721 726.605 -19.959 728.613 -20.0344C736.353 -20.3473 743.981 -20.6138 751.074 -21.8134C755.099 -22.4972 760.569 -22.9086 765.776 -22.2132C766.686 -22.0915 767.775 -22.0104 768.769 -22.022C775.056 -22.0683 780.788 -21.4541 786.605 -20.9268C788.97 -20.7181 790.133 -20.3009 790.265 -19.5476C790.499 -18.2727 791.587 -18.0989 795.613 -18.5972C797.395 -18.8232 799.075 -18.9913 801.045 -18.8754C801.533 -18.8464 802.171 -18.8348 802.565 -18.8986C809.592 -20.0344 817.117 -19.1593 824.304 -19.1883C828.995 -19.2057 833.827 -18.6552 838.434 -18.1221C839.119 -18.0409 839.794 -17.9656 840.461 -17.8845C841.887 -17.7164 843.275 -17.6179 844.617 -17.5774C847.085 -17.502 849.449 -17.6179 851.879 -17.9193C853.756 -18.1568 855.519 -18.4582 857.387 -18.7016C860.201 -19.0666 861.928 -19.6461 863.044 -20.4632C865.146 -22.0046 867.538 -22.2248 872.961 -21.4831C877.165 -20.9152 881.706 -20.5907 886.2 -20.3299C889.765 -20.1271 892.317 -19.8026 893.434 -18.8001C894.109 -18.1916 895.798 -17.9019 897.891 -17.7164C901.887 -17.3687 902.732 -17.4267 905.734 -18.4234C906.504 -18.7363 907.254 -19.055 908.784 -18.6958C909.131 -18.6088 909.515 -18.5277 909.938 -18.4698C911.157 -18.1337 912.321 -17.7744 913.597 -17.4557C916.036 -16.8588 917.669 -16.8878 919.752 -17.5368C920.089 -17.6411 920.296 -17.7802 920.615 -17.8845C926.545 -19.988 931.921 -20.7993 941.838 -20.9963C943.921 -21.0427 945.338 -21.3614 946.904 -21.6395C948.997 -22.0104 950.676 -21.9409 952.309 -21.4019C952.787 -21.2513 953.266 -21.0948 953.754 -20.9441C955.33 -20.4516 956.962 -19.9764 958.586 -19.4954C960.575 -18.9102 963.089 -18.6842 965.594 -19.1072C971.777 -20.1387 976.562 -19.2347 980.1 -18.0757C983.224 -17.0442 987.136 -16.4416 990.861 -15.7172C994.633 -14.9871 998.489 -15.5318 998.874 -16.8124C998.93 -17.0037 998.911 -17.2007 998.752 -17.3861C998.442 -17.7222 997.936 -18.0467 997.917 -18.3828C997.907 -18.5914 998.086 -18.8117 998.639 -19.0319C999.953 -19.565 1001.59 -19.9474 1003.8 -20.1618C1005.98 -20.3647 1007.57 -20.7935 1009.19 -21.2339C1012.38 -22.1031 1015.25 -22.1842 1018.12 -21.2918C1020.53 -20.5385 1023.15 -20.411 1026.36 -20.4632C1029.69 -20.5153 1032.67 -20.3357 1035.44 -19.6925C1039.59 -18.7189 1041.89 -18.7363 1046.43 -19.6345C1048.53 -20.0402 1050.35 -20.0691 1052.64 -19.7852C1057.05 -19.2405 1061.86 -19.594 1065.15 -20.5675C1068.68 -21.6163 1072.45 -22.6015 1076.76 -23.3953C1080.66 -24.1197 1083.08 -24.0791 1085.49 -23.0129C1087.77 -22.0046 1090.41 -21.825 1094.2 -22.0799C1096.7 -22.2538 1099.34 -22.1784 1101.89 -22.051C1103.27 -21.9872 1104.68 -21.9061 1105.96 -22.0799C1109.29 -22.5261 1112.27 -22.4508 1114.47 -21.7322C1115.81 -21.7206 1116.07 -21.8829 1116.42 -22.0567C1117.97 -22.8275 1119.19 -22.9607 1121.53 -22.4914C1123.74 -22.0394 1125.56 -21.4251 1128.8 -21.796C1132.17 -22.1842 1134.59 -22.8101 1135.79 -23.7778C1136.81 -24.5949 1138.95 -25.0585 1141.6 -25.4989C1146.11 -26.2464 1150.52 -26.9012 1156.02 -26.7795C1158.26 -26.7274 1160.45 -26.71 1162.53 -26.4376C1163.6 -26.2928 1164.82 -26.1073 1165.91 -26.1305C1172.31 -26.2754 1176.39 -25.1686 1180.61 -24.1081C1181.37 -23.9169 1182.09 -23.7025 1182.98 -23.5692C1185.6 -23.1694 1188.08 -23.4823 1187.9 -24.3399C1187.63 -25.6553 1191.03 -26.0494 1193.94 -26.5883C1195.83 -26.936 1197.88 -26.9707 1199.46 -26.4029C1200.62 -25.9914 1202.16 -25.8871 1203.95 -25.8234C1207.87 -25.6785 1211.14 -25.2323 1212.93 -24.1545C1214.07 -23.4649 1216.16 -23.1751 1218.85 -23.2795C1224.01 -23.4881 1229.11 -22.9723 1234.28 -23.2331C1236.1 -23.3258 1237.53 -22.9955 1238.95 -22.7232C1241.18 -22.2943 1243.49 -22.0452 1246.14 -22.4972C1246.66 -22.5841 1247.72 -22.671 1248.03 -22.5957C1250.78 -21.9466 1255.12 -21.8771 1256.93 -20.9557C1261.86 -18.4466 1267.87 -18.632 1277.92 -19.31C1278.62 -19.3622 1279.32 -19.4317 1280 -19.5012L1279.99 -19.5302Z" fill="#472C1B"/>
<path d="M1279.99 -19.1766V79.3293C1279.53 79.3989 1279.08 79.4858 1278.62 79.6017C1276.79 80.0537 1274.92 79.9204 1273.15 79.5495C1270.75 79.0396 1267.89 78.7672 1264.86 78.576C1264.01 78.5239 1263.11 78.4601 1262.56 78.6803C1262.03 78.8889 1262.61 79.0802 1263.15 79.2424C1264.22 79.5669 1265.34 79.8914 1266.42 80.2102C1267.41 80.5057 1268.47 80.778 1269.35 81.091C1270.53 81.4966 1271.86 81.9428 1270.85 82.4759C1269.8 83.038 1267.49 82.9743 1265.46 82.9859C1264.43 82.9975 1263.39 82.9685 1262.37 82.9569C1259.45 82.7251 1257.36 82.2905 1256.25 81.5719C1255.25 80.9287 1253.75 80.7549 1251.99 81.4213C1249.99 82.1804 1245.28 81.8385 1243.56 82.6845C1241.59 83.1829 1239.54 83.6233 1236.35 83.3509C1236.06 83.3278 1235.58 83.3278 1235.35 83.3625C1229.28 84.4346 1220.79 84.5389 1216.25 86.2078C1213.78 87.1118 1210.53 87.4768 1206.1 87.2914C1202.24 87.1176 1199.45 87.4884 1197.82 88.3866C1196.68 89.0067 1194.8 89.2964 1191.8 89.3544C1187.01 89.4413 1182.29 89.7078 1177.52 89.8759C1174.18 89.9976 1173.67 89.9338 1172.83 89.111C1171.94 88.2302 1169.77 87.4189 1170.53 86.4396C1170.9 85.9586 1169.6 85.5877 1167.76 85.5298C1164.7 85.4487 1162.74 85.0025 1160.96 84.4925C1158.72 83.8609 1155.95 83.6523 1152.7 83.6697C1149.77 83.6812 1146.85 83.6812 1143.94 83.687C1141.97 83.4958 1139.87 83.548 1137.9 83.6059C1134.35 83.716 1131.25 84.0231 1131.23 85.1068C1131.23 85.3559 1131.21 85.6341 1130.08 85.7384C1128.64 85.8601 1128.03 85.5298 1127.18 85.3501C1125.41 84.9909 1124.96 84.4462 1124.05 83.9652C1121.25 82.4875 1118.28 82.1282 1112.27 82.586C1106.88 82.9917 1102.21 83.6812 1098.99 84.8402C1097.46 85.3965 1095.61 85.6399 1092.88 85.4603C1091.89 85.3907 1090.85 85.3559 1089.83 85.3444C1083.91 85.2632 1079.64 84.7069 1078.35 83.1597C1077.94 82.6614 1076.52 82.221 1074.51 82.0355C1070.05 81.6241 1065.55 81.1373 1060.69 81.7342C1057.94 82.0761 1055.02 82.0065 1052.1 81.9196C1045.33 81.7226 1038.76 81.9776 1032.39 82.5107C1029.97 82.7135 1027.71 82.7367 1025.35 82.5455C1021.03 82.1862 1016.9 82.2847 1012.93 82.8294C1010.97 83.1018 1008.81 83.2524 1006.61 83.3625C1004.48 83.4726 1003.45 83.3046 1003.43 82.7193C1003.4 81.8675 1003.21 81.8443 1000.06 82.0935C993.939 82.5802 988.328 83.2988 983.458 84.3245C980.165 85.0198 976.525 85.5182 972.415 85.8949C968.109 86.2831 963.981 86.8046 959.777 87.274C956.137 87.6739 952.459 88.0331 948.65 88.1838C944.024 88.375 940.252 88.8908 936.678 89.5456C933.91 90.0555 931.011 90.4901 927.774 90.7973C925.034 91.058 922.501 91.4231 920.268 91.8867C917.19 92.5299 913.7 92.7096 909.712 92.6226C904.196 92.5067 898.697 92.414 893.162 92.4546C890.3 92.472 887.42 92.5241 884.53 92.6342C880.721 92.7733 876.921 92.6574 873.449 92.2576C871.779 92.0721 870.184 91.8172 868.702 91.4984C864.874 90.6756 860.811 90.7219 857.443 91.6375C856.157 91.9794 855.116 92.3619 852.883 92.3329C851.982 92.3213 851.166 92.4314 850.631 92.5937C847.995 93.4223 844.73 93.2948 841.314 92.9761C838.706 92.7327 835.948 92.7154 833.199 92.6748C830.628 92.6342 829.342 92.924 829.192 93.544C829.174 93.6251 829.145 93.7121 829.098 93.7932C828.873 94.1641 828.601 94.4306 828.179 94.6103C827.579 94.8884 826.668 94.9927 825.186 95.0275C822.991 95.0738 820.87 94.7899 819.697 94.3089C819.416 94.1988 819.191 94.0713 819.031 93.9381C818.693 93.6599 818.553 93.3586 818.609 93.063C818.834 92.0142 817.643 91.0175 816.929 89.9918C814.847 89.9628 815.597 90.6988 813.608 90.6408C812.595 90.4554 813.054 90.1946 813.092 89.957C813.139 89.6673 812.773 89.5108 811.544 89.4065C807.528 89.0704 805.267 88.3113 803.907 87.3667C803.456 87.0538 803.053 86.7293 802.556 86.4222C801.936 86.0339 801.645 85.5761 799.966 85.3675C798.183 85.1473 797.292 85.6457 795.875 85.7326C792.648 85.9238 789.974 86.3758 787.112 86.7467C784.175 87.1292 783.331 87.6797 783.903 88.4156C784.494 89.1573 785.179 89.8875 785.808 90.6292C786.164 91.0349 786.662 91.4463 786.812 91.8519C787.093 92.6632 786.634 92.7791 783.35 92.8892C782.158 92.9356 780.976 92.9819 779.784 93.0341C776.726 93.1558 774.399 92.8776 772.748 92.2518C772.006 91.9736 771.284 91.6839 770.646 91.3883C767.925 90.1251 764.097 89.14 758.88 88.4793C756.206 88.1432 754.968 87.6912 753.973 86.9032C752.829 86.0108 753.138 85.3675 754.414 84.5621C755.409 83.9362 755.925 83.2119 754.095 82.4991C751.768 83.096 752.003 84.0347 749.216 84.4404C746.739 84.8054 743.878 85.0025 741.269 85.3212C736.19 85.9431 732.165 85.6747 729.194 84.5157C728.378 84.197 727.496 83.8841 726.455 83.6059C724.944 83.2061 724.231 82.7773 724.813 82.2383C725.019 82.0471 725.516 81.8153 724.334 81.711C723.433 81.6299 722.533 81.7168 722.035 81.8849C718.892 82.9627 714.501 83.8956 714.736 85.3907C714.764 85.5588 714.67 85.721 714.558 85.8891C713.967 86.7235 712.897 87.0306 709.538 87.0364C701.469 87.0596 693.4 87.2508 685.322 87.1407C681.297 87.077 677.628 86.7177 673.941 86.3758C670.732 86.0745 667.58 85.7326 664.08 85.6862C659.764 85.6225 658.075 85.9122 656.856 86.8916C656.659 87.048 656.583 87.2219 656.433 87.3841C654.829 89.1342 653.084 89.4239 645.897 89.3833C641.468 89.366 636.984 89.3312 632.78 89.8527C630.36 90.154 628.023 90.0034 625.499 89.6731C617.778 88.6474 609.418 87.9868 600.842 87.558C594.978 87.2624 592.351 88.1432 594.612 89.4934C596.095 90.38 597.906 91.2377 599.491 92.1185C600.186 92.5009 600.833 92.8892 600.824 93.3238C600.814 93.7294 600.505 94.0771 598.656 94.2104C596.855 94.3379 595.691 94.1988 595.11 93.7526C594.913 93.602 594.406 93.4803 593.787 93.2485C592.051 93.8222 590.268 93.741 587.96 93.4803C583.288 92.9587 578.85 92.3155 573.924 91.9099C570.575 91.6375 567.638 91.7071 564.57 92.1475C560.094 92.7791 555.656 93.1616 549.961 92.8776C543.891 92.5821 538.749 93.4397 534.846 94.6103C532.604 95.2825 530.493 95.972 528.269 96.6558C528.128 96.6964 527.988 96.7369 527.847 96.7833C526.271 97.2527 524.619 97.751 522.208 96.9861C522.011 96.9282 521.542 96.8528 521.345 96.8702C517.948 97.2005 515.781 96.7833 513.661 96.3081C513.285 96.227 512.92 96.1401 512.544 96.059C511.859 95.9083 510.565 95.7982 509.654 95.9778C509.242 96.059 508.829 96.1169 508.425 96.1517C507.647 96.227 506.887 96.2212 506.145 96.1748C505.207 96.1227 504.306 96.0068 503.415 95.9083C501.201 95.6417 499.568 95.2071 498.78 94.6161C498.048 94.0598 497.27 93.5092 496.519 92.9529C495.571 92.246 493.826 91.6897 491.133 91.3362C487.681 90.8726 483.928 90.5075 482.68 89.4471C482.52 89.3138 481.507 89.2501 481.197 89.111C479.612 88.3982 478.242 88.6126 477.041 89.2327C475.052 88.8386 475.915 88.4156 476.112 88.0331C476.525 87.2219 475.53 86.6134 472.95 86.0397C468.775 85.1068 465.041 84.0637 461.119 83.0612C459.909 82.7541 459.036 82.389 458.548 81.9834C456.944 80.6621 453.425 79.9204 447.871 79.5611C442.758 79.2308 437.813 79.0512 432.643 79.3757C431.302 79.4568 429.847 79.4974 428.909 79.7582C425.972 80.581 422.388 80.5115 419.048 80.0769C414.319 79.4568 408.681 79.509 404.149 78.7441C402.441 78.4543 400.311 78.576 398.444 78.9469C394.626 79.7118 389.897 80.1754 385.177 80.0595C378.263 79.8914 374.041 80.8302 371.582 82.0239C367.21 84.1448 359.723 85.5819 353.99 87.3899C351.992 88.0216 349.946 88.6416 347.882 89.2559C347.254 89.4471 346.691 89.6789 345.537 89.6789C344.645 89.6151 344.73 89.4297 344.495 89.2848C343.313 88.5431 342.525 88.4793 340.282 88.9719C339.391 89.1689 338.641 89.4065 337.862 89.6209C336.286 90.0671 334.362 90.2989 331.923 90.2004C329.981 90.1193 328.189 90.1946 326.443 90.4148C324.801 90.6234 323.16 90.9074 321.518 90.3569C320.842 90.1309 319.594 90.2584 318.637 90.3569C315.944 90.6234 313.317 90.8842 311.028 91.3767C307.463 92.1359 305.811 92.0026 301.636 91.4405C294.609 90.5075 287.534 89.4934 278.959 89.76C275.525 89.8643 272.579 89.6267 269.905 89.0762C267.137 88.5083 263.9 88.1027 260.588 87.7434C259.65 87.6391 258.627 87.4653 257.717 87.4884C250.586 87.6797 247.293 86.4164 244.938 85.2169C241.335 83.3857 236.569 81.9428 229.363 80.9171C226.286 80.4767 223.537 79.8798 220.356 79.4568C217.654 79.0975 213.779 79.3351 211.996 78.4775C211.846 78.4022 210.561 78.379 210.082 78.4543C207.737 78.7846 205.701 78.7672 203.477 78.35C202.417 78.1472 201.225 78.4311 200.287 78.605C198.927 78.86 197.669 79.1555 195.99 79.2888C193.063 79.5264 191.195 79.3815 189.328 78.7672C185.172 77.3881 184.525 77.3417 177.685 77.7589C176.69 77.8227 175.696 77.898 174.682 77.9386C169.4 78.1414 165.713 78.7962 164.643 80.1174C163.208 81.8906 158.357 82.7483 151.573 83.0612C146.582 83.293 142.529 83.8087 139.695 84.8518C138.438 85.3096 137.744 85.8253 136.862 86.3295C135.22 87.2682 133.7 87.4189 130.322 86.8394C128.765 86.5786 127.611 86.4975 126.297 86.8162C124.13 87.3378 121.859 87.1581 119.654 86.8858C117.675 86.6366 115.751 86.3527 113.94 86.0397C111.67 85.6457 109.193 85.3675 106.641 85.1184C103.911 84.846 101.584 84.8692 98.8722 85.2574C93.2146 86.0803 86.8345 85.7848 80.7266 85.6862C76.542 85.6167 76.1292 85.6109 75.5381 86.6076C75.4349 86.7757 75.4442 86.9379 75.3692 87.106C75.266 87.3494 75.6976 87.6565 74.5904 87.7898C73.1549 87.9578 71.6819 87.784 70.9219 87.5174C68.717 86.7467 65.405 86.6134 62.018 86.428C56.2571 86.1093 52.2977 85.0894 48.1413 84.1796C46.9967 83.9246 46.0584 83.6233 44.6229 83.4668C39.2561 82.8816 35.2498 81.7979 30.0801 81.1199C27.8565 80.8244 26.0457 80.355 23.3811 80.2391C21.9737 80.1754 20.6977 80.0073 20.4256 79.6249C20.1441 79.2366 21.1762 79.0048 22.5085 78.8542C23.8971 78.6977 25.6328 78.605 24.3381 78.0661C22.4428 77.2664 20.0878 76.9361 17.8173 77.2548C15.284 77.6141 12.9478 78.0371 10.5271 78.4427C7.95631 78.6629 7.25263 79.3293 5.38552 79.7234C4.25963 79.9088 3.05868 80.0827 2.01723 80.2971C0.825655 80.5405 0.0469122 80.7896 2.34561 80.9924C3.49965 81.0968 3.09621 81.3633 2.22364 81.456C1.40737 81.543 0.675536 81.6531 0 81.769V-9.24433C1.51057 -9.23274 3.02115 -9.20956 4.53172 -9.18638C4.84134 -9.24433 5.14158 -9.30228 5.44182 -9.36022C9.79527 -10.2468 14.0361 -11.1798 19.4404 -11.6839C20.2473 -11.7535 20.9791 -11.8868 21.8048 -11.9331C26.3928 -12.1591 30.6337 -12.5763 34.6212 -13.1674C35.3155 -13.2717 36.2538 -13.2833 37.07 -13.3355C38.5525 -13.4687 40.0255 -13.4572 41.5361 -13.3471C45.533 -13.0534 48.2039 -13.3876 49.5487 -14.3496C50.9842 -15.5781 54.3244 -16.3488 59.2314 -16.7486C62.8342 -17.0441 66.2964 -17.3918 69.674 -17.8206C74.0181 -18.3654 78.897 -18.5044 83.6257 -18.6435C87.8291 -18.771 90.231 -19.2346 91.3756 -20.1849C91.6196 -20.382 91.9573 -20.579 92.2951 -20.7702C94.4437 -22.0161 95.8041 -22.2131 101.377 -22.103C104.117 -22.0451 106.857 -21.9987 109.606 -21.9581C111.492 -21.9292 113.377 -21.9639 113.772 -21.3033C114.006 -20.9093 115.761 -20.9035 117.121 -20.8571C119.842 -20.7702 122.694 -20.4978 125.256 -20.6195C127.329 -20.7123 129.534 -20.7586 131.589 -20.8977C134.113 -21.0657 136.411 -21.3671 138.006 -22.0509C140.868 -23.2852 146.169 -23.2852 149.49 -22.1088C151.132 -21.5177 152.53 -20.8861 154.379 -20.3356C157.616 -19.3794 160.055 -19.4026 163.639 -20.2892C165.797 -20.8224 168.377 -21.2512 167.636 -22.1841C167.289 -22.6245 168.809 -22.7694 170.366 -22.5956C176.746 -21.877 183.849 -21.5873 189.788 -20.6022C194.536 -19.8141 200.043 -19.4432 205.476 -19.0491C206.442 -18.9796 207.784 -18.8753 208.497 -18.9796C209.125 -19.0665 209.763 -19.1477 210.42 -19.2114C215.036 -19.6344 220.281 -19.4026 224.794 -19.9705C228.828 -20.4747 232.384 -20.3472 234.702 -19.3737C238.474 -17.7801 244.019 -17.16 251.018 -16.9398C254.227 -16.8355 257.295 -16.5226 260.569 -16.9167C261.817 -17.0615 269.464 -16.3893 270.28 -16.0474C271.978 -15.3405 274.746 -15.1956 277.655 -15.0623C280.535 -14.9348 283.387 -14.732 286.324 -14.7958C291.625 -14.9059 296.579 -14.6103 301.345 -14.0946C303.381 -13.8744 305.23 -13.7875 307.069 -14.1757C307.697 -14.309 308.729 -14.506 309.311 -14.3148C311.431 -13.631 313.392 -14.0135 315.438 -14.3032C315.579 -14.3206 315.766 -14.3438 315.935 -14.338C321.499 -14.2221 327.091 -14.1409 332.617 -13.9497C334.09 -13.8976 335.244 -13.6078 336.614 -14.0193C338.059 -14.4655 339.401 -14.1757 340.404 -13.8744C342.009 -13.3818 343.379 -12.8487 345.002 -12.3619C347.788 -11.5333 351.307 -11.2725 355.613 -11.5622C360.746 -11.9215 366.009 -12.1243 371.263 -12.3388C376.433 -12.5532 381.03 -13.1384 384.812 -14.0424C387.814 -14.761 390.647 -15.3926 395.583 -15.1434C398.491 -15.0044 401.137 -15.4506 402.629 -16.1633C405.781 -17.67 413.466 -17.9423 418.335 -16.737C418.814 -16.6153 419.189 -16.4762 419.62 -16.343C421.247 -15.8446 422.72 -15.8871 424.04 -16.4705C426.047 -17.3513 427.971 -17.5773 432.127 -17.2701C439.849 -16.6965 447.496 -16.0648 455.189 -15.468C458.445 -15.2188 461.663 -14.8827 465.191 -15.2709C466.298 -15.3926 467.565 -15.2709 468.719 -15.184C471.271 -14.987 472.613 -15.3057 473.41 -15.8446C474.048 -16.2792 474.489 -16.7312 475.305 -17.1369C477.97 -18.4755 482.427 -18.7536 487.409 -17.8902C490.083 -17.4324 492.55 -17.2238 495.149 -17.9018C495.994 -18.122 496.979 -18.0756 497.87 -17.8844C498.733 -17.6932 499.155 -17.2759 500.507 -17.3571C502.655 -17.4672 505.254 -17.5541 506.69 -17.9018C512.61 -19.3157 519.393 -19.1071 526.421 -18.713C527.256 -18.6667 528.082 -18.6087 528.926 -18.5798C529.245 -18.5682 529.592 -18.5972 529.977 -18.6087C530.596 -18.9796 529.226 -19.1187 528.466 -19.2983C527.106 -19.617 525.539 -19.8778 524.15 -20.1907C522.809 -20.4921 520.82 -20.7238 521.739 -21.3149C522.537 -21.8133 525.858 -22.2073 528.241 -22.0682C530.615 -21.935 532.698 -21.6336 534.593 -21.257C536.329 -20.9151 538.008 -20.5558 539.753 -20.2197C542.108 -19.7619 544.247 -19.5069 547.681 -19.8372C550.843 -20.1444 554.221 -20.0285 557.524 -19.3389C562.675 -18.2611 569.092 -17.7105 576.167 -17.838C579.76 -17.896 582.903 -18.1567 585.174 -18.8753C586.309 -19.2172 587.491 -19.4896 589.208 -19.0607C593.177 -18.5508 597.465 -18.4639 601.752 -18.6261C605.365 -18.7652 608.067 -18.4813 610.647 -17.9192C614.09 -17.16 616.961 -16.256 620.93 -15.636C623.332 -15.2651 625.837 -14.9522 628.652 -15.2941C632.733 -15.7925 637.34 -16.0532 640.69 -16.8761C642.951 -17.4324 645.878 -17.6874 648.759 -17.9539C651.592 -18.2147 653.675 -18.6145 655.345 -19.2693C659.135 -20.7528 663.63 -21.0426 670.347 -20.3008C676.014 -19.6808 681.803 -19.1882 688.005 -18.9796C690.248 -18.9043 692.593 -18.8058 694.648 -18.997C696.75 -19.1998 698.851 -19.2693 700.962 -19.2751C703.768 -19.2925 706.583 -19.2056 709.397 -19.1824C711.724 -19.165 714.07 -19.0491 715.552 -18.6087C715.646 -18.5798 715.73 -18.5508 715.815 -18.5218C717.185 -18.0351 718.386 -18.1857 720.131 -18.3422C729.175 -19.1824 737.892 -19.2751 745.632 -17.5541C747.396 -17.16 749.057 -16.7776 750.736 -17.612C751.487 -17.9887 753.251 -17.9134 754.386 -17.7163C757.679 -17.1484 761.723 -17.0268 765.167 -16.5632C766.452 -16.3893 767.653 -16.2792 769.013 -16.4589C770.402 -16.6559 771.659 -16.6095 772.776 -16.3488C774.146 -16.0243 775.309 -15.9895 776.604 -16.3893C778.527 -16.9804 780.751 -16.8413 782.993 -16.4936C785.761 -16.0532 788.219 -15.5491 790.049 -14.8595C791.259 -14.4075 792.713 -13.9207 795.453 -14.2221C797.489 -14.4481 798.071 -15.0044 797.236 -15.7461C797.189 -15.7867 797.095 -15.8214 797.067 -15.862C796.748 -16.2503 795.303 -16.6965 797.245 -17.0094C799.328 -17.3339 800.961 -17.0094 802.724 -16.6791C805.595 -16.1517 808.194 -15.5665 810.7 -14.9406C812.604 -14.4539 813.833 -14.5466 815.072 -15.1087C818.149 -16.5052 818.393 -16.5284 824.623 -16.0822C826.049 -15.7577 827.447 -15.6418 828.779 -16.1054C830.309 -16.3719 831.697 -16.7428 833.405 -16.8877C836.239 -17.1311 838.124 -17.4556 838.425 -18.1509C838.472 -18.2611 838.481 -18.3769 838.453 -18.5044C838.321 -19.0434 840.113 -19.0376 841.793 -18.8927C843.491 -18.7478 844.139 -18.4059 844.279 -18.0119C844.336 -17.8728 844.439 -17.7395 844.608 -17.612C845.199 -17.1311 846.494 -16.766 848.014 -16.4183C849.261 -16.1344 850.725 -15.9837 852.17 -16.2792C854.281 -16.708 856.655 -16.6037 859.057 -16.5864C861.975 -16.5516 864.902 -16.5458 867.82 -16.5458C870.259 -16.54 872.633 -16.5921 874.613 -17.0036C875.542 -17.2006 876.714 -17.3339 877.943 -17.2759C880.139 -17.1774 880.88 -17.4903 881.734 -17.9018C883.489 -18.742 884.614 -18.8 887.701 -18.3074C888.846 -18.1278 889.934 -17.9134 890.929 -17.6816C894.325 -16.8993 898.369 -16.4936 902.976 -16.4009C906.757 -16.3314 910.472 -16.1923 914.122 -15.9315C917.331 -15.6997 920.136 -15.8562 922.566 -16.482C927.183 -17.67 933.628 -18.1394 939.248 -18.9275C940.496 -19.1071 941.744 -19.0665 943.18 -18.939C947.336 -18.5682 949.494 -18.7884 951.492 -19.7387C952.346 -20.1444 952.975 -20.5732 953.744 -20.9904C953.969 -21.1121 954.204 -21.228 954.457 -21.3381C956.381 -22.2015 957.216 -22.2479 960.95 -21.8364C965.951 -21.2744 970.708 -20.5964 975.915 -20.1386C976.075 -20.127 976.272 -20.1154 976.375 -20.0864C981.338 -18.6841 988.459 -18.8695 994.924 -18.6377C996.022 -18.5914 997.007 -18.5218 997.907 -18.4233C999.934 -18.1915 1001.52 -17.8322 1003.01 -17.4092C1007.38 -16.1807 1012.87 -15.4853 1019.51 -15.3115C1020.52 -15.2883 1021.83 -15.1898 1022.54 -15.2999C1025.86 -15.8272 1027.78 -15.213 1030.56 -14.9348C1041.24 -13.8918 1052.17 -12.8197 1063.5 -14.5929C1066.97 -15.1319 1070.87 -15.3405 1075.03 -15.5259C1081.52 -15.8214 1088.04 -16.285 1093.89 -17.1253C1095.72 -17.386 1097 -17.7859 1098.07 -18.2147C1099.99 -18.9854 1102.8 -19.2751 1106.36 -19.2172C1107.57 -19.1998 1108.77 -19.1708 1109.97 -19.165C1116.96 -19.1245 1123.99 -18.9101 1130.85 -19.4432C1131.97 -19.5301 1133.15 -19.6808 1134.26 -19.4548C1139.29 -18.4407 1144.97 -18.3074 1151.09 -18.6899C1152.91 -18.8 1154.85 -18.8116 1156.66 -18.939C1160.01 -19.1708 1163 -19.1419 1165.81 -18.545C1167.81 -18.1162 1170.52 -18.0466 1173.08 -17.9713C1175.6 -17.896 1176.25 -18.0582 1176.12 -18.6435C1175.86 -19.787 1178.1 -20.268 1182.84 -20.0864C1186.03 -19.9589 1187.97 -20.3993 1187.85 -21.2164C1187.64 -22.6651 1187.7 -22.6187 1193.15 -23.1461C1196.14 -23.4416 1198.81 -23.6618 1201.92 -23.2504C1205.95 -22.7173 1209.27 -22.0161 1211.4 -21.0194C1212.15 -20.6775 1212.11 -20.2776 1211.58 -19.9184C1211.08 -19.5591 1210.39 -19.223 1209.82 -18.8753C1209.02 -18.3827 1207.15 -17.9597 1208.06 -17.3571C1209.36 -16.4994 1209.96 -15.5491 1213.43 -14.987C1216.87 -14.4307 1220.31 -13.8802 1223.8 -13.3413C1224.65 -13.208 1225.67 -13.1153 1226.66 -13.0747C1228.24 -13.011 1229.8 -13.0573 1230.76 -13.4282C1231.62 -13.7643 1231.02 -14.083 1230.26 -14.3727C1229.33 -14.7146 1228.27 -15.0507 1227.19 -15.3752C1225.83 -15.7867 1226.29 -16.117 1227.6 -16.482C1229.46 -16.9978 1231.62 -16.8471 1233.78 -16.7138C1236.02 -16.5748 1236.76 -16.1575 1236.4 -15.6476C1235.87 -14.8827 1238.13 -14.2221 1237.48 -13.4398C1237.25 -13.1674 1238.64 -13.0515 1239.74 -13.0747C1242.13 -13.1384 1244.52 -13.2196 1246.9 -13.3065C1248.53 -13.3702 1249.1 -13.6832 1249.42 -14.0193C1251.29 -16.0069 1253.71 -16.4473 1263.28 -16.1923C1268.13 -16.0648 1271.56 -16.5226 1274.35 -17.4266C1276.2 -18.0235 1278.1 -18.6203 1279.99 -19.2114V-19.1766Z" fill="#472C1B"/>
</svg>
