<svg width="52" height="52" viewBox="0 0 52 52" fill="none" xmlns="http://www.w3.org/2000/svg">
<path d="M34.6668 4.3335H17.3335C10.164 4.3335 4.3335 10.164 4.3335 17.3335V45.5002C4.3335 46.0748 4.56177 46.6259 4.9681 47.0322C5.37443 47.4386 5.92553 47.6668 6.50016 47.6668H34.6668C41.8363 47.6668 47.6668 41.8363 47.6668 34.6668V17.3335C47.6668 10.164 41.8363 4.3335 34.6668 4.3335ZM43.3335 34.6668C43.3335 39.4465 39.4465 43.3335 34.6668 43.3335H8.66683V17.3335C8.66683 12.5538 12.5538 8.66683 17.3335 8.66683H34.6668C39.4465 8.66683 43.3335 12.5538 43.3335 17.3335V34.6668Z" fill="#FEFAE0"/>
<path d="M23.8331 29.4361L18.8649 24.4679L15.8013 27.5316L23.8331 35.5634L37.2816 22.1149L34.2179 19.0513L23.8331 29.4361Z" fill="#FEFAE0"/>
</svg>
