<svg width="52" height="52" viewBox="0 0 52 52" fill="none" xmlns="http://www.w3.org/2000/svg">
<path d="M45.5002 6.5H30.3335C28.7293 6.50543 27.1845 7.10789 26.0002 8.19C24.8158 7.10789 23.2711 6.50543 21.6668 6.5H6.50016C5.92553 6.5 5.37443 6.72827 4.9681 7.1346C4.56177 7.54093 4.3335 8.09203 4.3335 8.66667V41.1667C4.3335 41.7413 4.56177 42.2924 4.9681 42.6987C5.37443 43.1051 5.92553 43.3333 6.50016 43.3333H18.9758C20.1155 43.3333 21.2335 43.797 22.0395 44.603L24.4683 47.0318C24.4878 47.0513 24.5138 47.0578 24.5333 47.0773C24.7197 47.2485 24.9277 47.4002 25.1703 47.502H25.1747C25.7032 47.7208 26.2971 47.7208 26.8257 47.502H26.83C27.0727 47.4002 27.2807 47.2485 27.467 47.0773C27.4865 47.0578 27.5125 47.0513 27.532 47.0318L29.9608 44.603C30.7753 43.7933 31.876 43.3371 33.0245 43.3333H45.5002C46.0748 43.3333 46.6259 43.1051 47.0322 42.6987C47.4386 42.2924 47.6668 41.7413 47.6668 41.1667V8.66667C47.6668 8.09203 47.4386 7.54093 47.0322 7.1346C46.6259 6.72827 46.0748 6.5 45.5002 6.5ZM18.9758 39H8.66683V10.8333H21.6668C22.8628 10.8333 23.8335 11.8062 23.8335 13V40.4928C22.398 39.5248 20.7072 39.0052 18.9758 39ZM43.3335 39H33.0245C31.2933 39 29.5925 39.533 28.1668 40.4928V13C28.1668 11.8062 29.1375 10.8333 30.3335 10.8333H43.3335V39Z" fill="#FEFAE0"/>
</svg>
