<svg width="11" height="11" viewBox="0 0 11 11" fill="none" xmlns="http://www.w3.org/2000/svg">
<g clip-path="url(#clip0_538_713)">
<path d="M5.49984 9.1665C7.5165 9.1665 9.1665 7.5165 9.1665 5.49984C9.1665 3.48317 7.5165 1.83317 5.49984 1.83317C3.48317 1.83317 1.83317 3.48317 1.83317 5.49984C1.83317 7.5165 3.48317 9.1665 5.49984 9.1665ZM5.49984 0.916504C8.02067 0.916504 10.0832 2.979 10.0832 5.49984C10.0832 8.02067 8.02067 10.0832 5.49984 10.0832C2.979 10.0832 0.916504 8.02067 0.916504 5.49984C0.916504 2.979 2.979 0.916504 5.49984 0.916504ZM7.7915 6.37067L7.47067 6.9665L5.0415 5.63734V3.20817H5.729V5.22484L7.7915 6.37067Z" fill="#472C1B"/>
</g>
<defs>
<clipPath id="clip0_538_713">
<rect width="11" height="11" fill="white"/>
</clipPath>
</defs>
</svg>
