<svg width="52" height="52" viewBox="0 0 52 52" fill="none" xmlns="http://www.w3.org/2000/svg">
<path d="M26.0002 4.3335C30.0226 4.3335 33.8803 5.93141 36.7246 8.77571C39.5689 11.62 41.1668 15.4777 41.1668 19.5002C41.1668 24.6568 38.5885 29.1852 34.6668 31.9368V36.8335C34.6668 37.4081 34.4386 37.9592 34.0322 38.3656C33.6259 38.7719 33.0748 39.0002 32.5002 39.0002H19.5002C18.9255 39.0002 18.3744 38.7719 17.9681 38.3656C17.5618 37.9592 17.3335 37.4081 17.3335 36.8335V31.9368C13.4118 29.1852 10.8335 24.6568 10.8335 19.5002C10.8335 15.4777 12.4314 11.62 15.2757 8.77571C18.12 5.93141 21.9777 4.3335 26.0002 4.3335ZM19.5002 45.5002V43.3335H32.5002V45.5002C32.5002 46.0748 32.2719 46.6259 31.8656 47.0322C31.4592 47.4386 30.9081 47.6668 30.3335 47.6668H21.6668C21.0922 47.6668 20.5411 47.4386 20.1348 47.0322C19.7284 46.6259 19.5002 46.0748 19.5002 45.5002ZM26.0002 8.66683C23.127 8.66683 20.3715 9.80819 18.3398 11.8398C16.3082 13.8715 15.1668 16.627 15.1668 19.5002C15.1668 23.9418 17.8318 27.7552 21.6668 29.4235V34.6668H30.3335V29.4235C34.1685 27.7552 36.8335 23.9418 36.8335 19.5002C36.8335 16.627 35.6921 13.8715 33.6605 11.8398C31.6288 9.80819 28.8733 8.66683 26.0002 8.66683Z" fill="#FEFAE0"/>
</svg>
