<svg width="370" height="69" viewBox="0 0 370 69" fill="none" xmlns="http://www.w3.org/2000/svg">
<path d="M370 4.12005V63.7733C369.558 63.7833 369.105 63.8266 368.658 63.8599C368.525 63.8699 368.378 63.9099 368.286 63.9633C367.998 64.1132 367.936 64.3999 367.353 64.3699C366.895 64.3432 366.58 64.1599 366.187 64.0632C365.229 63.8166 365.029 63.8433 364.359 64.2866C363.485 64.8632 363.393 64.8665 362.205 64.3666C362.024 64.2899 361.793 64.1632 361.603 64.1766C360.429 64.2366 359.816 63.8566 359.249 63.4333C358.322 64.1766 358.137 64.1799 356.968 63.51C356.499 63.24 355.886 63.0266 355.967 62.5833C356.014 62.3233 355.428 62.2 355.04 62.0467C354.568 61.8667 354.175 61.85 353.806 62.1267C353.616 62.2667 353.266 62.26 352.998 62.19C352.295 62.01 351.501 61.96 350.82 61.7367C349.974 61.4634 349.721 61.5301 349.556 62.0034C349.515 62.1234 349.561 62.26 349.464 62.3667C349.236 62.6133 348.957 62.88 348.262 62.7633C347.853 62.6933 347.503 62.8667 346.993 62.7633C347.389 62.31 347.43 61.7967 348.1 61.3901C348.872 61.0734 348.336 60.9434 347.771 60.8168C346.844 60.4168 346.282 60.4168 345.607 60.8768C344.975 61.3067 344.902 61.88 344.126 62.29C343.863 62.4267 344.186 62.6167 344.359 62.7567C345.385 63.5566 345.092 64.2832 343.92 64.9699C343.378 65.2865 342.852 65.6065 342.268 65.9065C341.862 66.1165 341.449 66.0431 341.298 65.7665C341.173 65.5432 341.27 65.3332 341.46 65.1299C341.75 64.8199 341.46 64.6532 340.847 64.6366C339.819 64.6032 338.783 64.5632 337.758 64.5966C336.489 64.6399 335.382 64.3032 334.148 64.2899C334.102 64.2899 334.037 64.2799 334.015 64.2599C333.207 63.6233 331.694 63.5166 330.563 63.1266C329.955 62.9133 329.464 62.83 328.83 63.0233C328.475 63.35 328.887 63.8366 327.954 64.0466C327.582 64.1666 327.208 64.2866 326.845 64.4099C326.581 64.4999 326.327 64.5499 326.039 64.4399C325.96 64.4099 325.822 64.3566 325.8 64.3632C324.892 64.7299 323.783 64.3899 322.863 64.5632C322.144 64.7032 321.485 64.8165 320.729 64.6965C320.425 64.6532 320.143 64.7065 319.866 64.7632C319.389 64.8565 319.058 64.7732 318.686 64.6066C317.846 64.2166 317.607 64.2232 316.671 64.5732C315.611 64.9732 314.575 65.3865 313.531 65.7965C313.376 65.8565 313.243 65.9298 313.089 65.9898C312.788 66.1065 312.451 66.1365 312.134 66.0231C311.865 65.9298 311.806 65.7765 311.884 65.6265C311.974 65.4665 312.118 65.3065 312.223 65.1465C312.573 64.6199 312.327 64.3266 311.312 64.0732C310.824 63.9533 310.317 63.8699 309.758 63.8599C308.749 63.8366 307.974 63.5966 307.412 63.19C306.436 62.48 305.259 61.9334 303.439 61.7934C302.598 61.7267 302.199 61.3501 301.806 61.0001C301.372 60.6101 301.049 60.6035 300.542 60.9568C300.374 61.0701 300.233 61.2101 300.173 61.3501C299.9 61.9967 299.523 62.64 299.447 63.2933C299.376 63.9266 298.717 64.4332 298.367 65.0065C298.166 65.3332 297.516 65.5532 296.873 65.4998C295.907 65.4265 295.487 65.5865 295.359 66.0331C295.319 66.1831 295.235 66.3498 294.885 66.3631C294.527 66.3764 294.483 66.1865 294.304 66.0765C293.767 65.7398 293.393 65.3832 293.45 64.9399C293.461 64.8432 293.358 64.7499 293.051 64.6999C292.683 65.0965 292.333 65.4765 292.954 65.9031C293.081 65.9865 293.04 66.0931 292.897 66.1698C292.788 66.2298 292.607 66.2298 292.509 66.1698C292.246 66.0231 292.197 65.6998 291.554 65.8831C291.006 66.0398 290.429 66.1865 290.312 66.5564C290.239 66.7964 290.071 67.0297 289.946 67.2631C289.046 67.5564 289.873 68.0897 289.29 68.4263C288.262 69.0196 286.822 68.9696 285.46 68.9996C284.972 69.0096 284.557 68.8163 284.261 68.6063C283.985 68.4097 283.6 68.3197 283.128 68.313C281.189 68.283 279.876 67.6697 278.913 66.9798C277.37 65.8698 275.799 64.7766 274.104 63.7233C273.801 63.5333 273.529 63.32 273.342 63.0966C273.12 62.8367 273.033 62.56 273.82 62.4633C274.066 62.4333 274.321 62.3733 274.349 62.24C274.468 61.6534 274.707 61.0001 274.123 60.5135C273.692 60.1501 273.09 59.7735 272.355 59.3502C272.003 59.9702 270.95 59.9768 270.082 60.1368C269.111 60.3168 268.322 60.5835 268.078 61.1268C268.046 61.1968 268.01 61.2701 267.956 61.3367C267.867 61.4534 267.744 61.5667 267.443 61.5501C267.213 61.5367 267.151 61.4301 267.115 61.3334C267.058 61.1868 267.037 61.0401 266.963 60.8968C266.901 60.7801 266.801 60.6634 266.494 60.6535C266.215 60.6468 266.022 60.7268 265.919 60.8434C265.583 61.2234 265.084 61.5967 264.97 61.99C264.653 63.0833 263.039 63.6633 261.507 64.2666C259.89 64.9099 258.16 65.4698 256.166 65.8031C255.765 65.8698 255.423 66.0365 255.092 66.1831C254.748 66.3331 254.363 66.4331 253.923 66.4831C253.308 66.5498 253.066 66.4364 253.199 66.1398C253.367 65.7565 253.872 65.5032 254.526 65.2965C255.168 65.0965 256.207 65.0299 255.738 64.4166C255.632 64.2766 256.128 64.1532 256.391 64.0466C257.284 63.6833 257.967 63.24 258.515 62.74C258.811 62.4733 258.922 62.1867 258.857 61.89C258.751 61.4101 257.799 61.0934 256.861 61.2268C256.381 61.2934 255.911 61.3834 255.418 61.2867C254.58 61.1168 253.791 61.1768 252.977 61.3467C252.483 61.4501 251.93 61.4834 251.407 61.5534C251.073 61.5967 250.634 61.6001 250.436 61.7101C249.402 62.2834 247.9 62.55 246.823 63.0833C246.088 63.4466 245.293 63.7066 244.209 63.6299C243.59 63.5899 243.118 63.6999 242.836 63.9566C242.465 64.2966 241.882 64.3966 241.163 64.4732C240.013 64.5932 238.915 64.8099 237.759 64.9465C237.222 65.0099 236.731 65.2165 236.281 65.4532C236.056 65.5665 235.842 65.6865 235.636 65.8031C235.126 66.0765 234.684 66.1965 233.981 66.0131C233.924 65.9998 233.87 65.9865 233.813 65.9765C233.403 65.8931 232.994 65.8998 232.649 66.1131C232.422 66.2565 232.064 66.2931 231.722 66.3198C231.215 66.3598 230.927 66.4598 231.052 66.7331C231.052 66.7398 231.057 66.7531 231.063 66.7631C231.209 67.0397 231.179 67.3131 230.591 67.4631C230 67.6097 229.373 67.553 228.947 67.3264C228.356 67.0064 227.551 67.0064 226.837 66.8598C226.401 66.7731 225.969 66.6798 225.536 66.5931C224.6 66.3965 223.664 66.1998 222.701 66.0331C221.985 65.9098 221.654 65.5332 221.682 65.1265C221.701 64.8065 221.706 64.4899 221.711 64.1699C221.717 63.9399 221.771 63.7333 222.33 63.6599C222.891 63.5866 223.035 63.4 222.777 63.1566C222.541 62.93 222.84 62.6567 222.446 62.4233C221.777 62.52 221.145 62.72 220.391 62.73C219.913 62.7367 219.664 62.9533 219.371 63.1233C218.473 63.6399 217.543 64.0033 215.932 63.8233C214.877 63.7066 213.8 63.6999 212.886 63.36C212.599 63.2533 212.227 63.2566 211.883 63.2833C210.933 63.3466 210.122 63.1733 209.396 62.9066C208.14 62.44 206.635 62.4267 205.192 62.29C205.146 62.2867 205.078 62.28 205.048 62.2934C204.02 62.67 203.079 62.4567 202.116 62.21C201.739 62.1134 201.354 62.1867 201.463 62.4267C201.661 62.8633 201.175 63.2933 201.52 63.7333C201.731 64.0066 201.324 64.1666 200.806 64.1466C199.477 64.1032 198.043 64.2266 197.129 63.5166C196.654 63.1466 195.824 63.0666 194.929 63.0233C193.107 62.94 191.409 62.6267 189.96 62.0534C189.565 61.8967 189.204 61.8467 188.74 61.9234C188.048 62.0334 187.392 62.01 186.744 61.8234C185.873 61.5667 184.946 61.6667 184.208 61.9067C182.738 62.39 181.035 62.6533 179.608 63.1633C179.204 63.3533 179.337 63.5566 179.562 63.7566C179.608 64.2366 179.107 64.5499 178.255 64.7199C177.512 64.8699 176.866 65.0799 176.237 65.3198C175.524 65.5998 175.272 65.5765 174.914 65.1699C174.583 64.7965 174.227 64.6665 173.484 64.9199C172.996 65.0899 172.467 65.0965 171.968 64.9099C171.542 64.7499 171.049 64.7932 170.563 64.7599C169.454 64.6866 168.589 64.7965 167.865 65.2565C167.547 65.4532 166.991 65.5665 166.411 65.6165C166.332 65.5632 166.248 65.5032 166.175 65.4432C166.004 65.3065 166.056 65.0732 165.595 65.0665C165.139 65.0599 165.098 65.2632 164.993 65.4232C164.928 65.5232 164.8 65.6132 164.599 65.6198C164.306 65.6298 164.16 65.5132 164.122 65.3898C163.954 64.8332 163.303 64.3366 163.287 63.7633C163.279 63.5233 163.1 63.44 162.549 63.4633C161.459 63.5033 160.61 63.7299 160.143 64.1966C158.942 65.4032 156.767 65.4765 154.48 65.4465C154.236 65.4432 153.987 65.3932 153.754 65.4098C153.363 65.4398 153.035 65.5298 153.474 65.7332C154.074 66.0165 153.686 66.1265 153.16 66.1431C152.802 66.1531 152.444 66.1631 152.102 66.1398H152.099C151.443 66.1031 150.852 65.9698 150.464 65.6132C150.412 65.5665 150.353 65.5265 150.287 65.4932C150.084 65.3832 149.813 65.3232 149.531 65.2798C149.062 65.2065 148.579 65.1032 148.099 65.0999C147.936 65.0999 147.776 65.0965 147.616 65.0899C147.272 65.0799 146.933 65.0599 146.596 65.0365C145.143 64.9232 143.735 64.6932 142.295 64.5532C141.611 64.4866 140.969 64.4032 140.334 64.6665C139.81 64.8865 139.084 64.8299 138.468 64.8132C137.342 64.7799 136.068 65.0432 135.14 64.4799C134.964 64.3699 134.69 64.4366 134.459 64.4866C134.104 64.5732 133.7 64.6232 133.394 64.7365C132.957 64.9032 132.686 64.8932 132.26 64.7032C131.086 64.1832 131.061 64.1966 130.288 64.8532C130.258 64.8799 130.231 64.8999 130.204 64.9232C129.8 65.2498 129.607 65.2432 128.27 64.9665C128.007 65.2199 127.676 65.4565 127.267 65.6665C126.619 65.9965 126.244 66.0665 125.802 65.8531C125.667 65.7865 125.523 65.6965 125.366 65.5732C125.233 65.4698 125.17 65.3298 124.853 65.3732C124.541 65.4132 124.568 65.5532 124.585 65.6732C124.601 65.7932 124.663 65.9465 124.368 65.9798C123.991 66.0198 123.936 65.8465 123.82 65.7098C123.47 65.2999 122.344 64.9099 121.533 64.9499C120.321 65.0132 119.149 65.0265 118.081 64.6599C117.823 64.5732 117.509 64.6532 117.216 64.6699C116.269 64.7332 116.036 64.6732 115.835 64.2432C115.645 63.8399 115.55 63.4233 115.144 63.0533C114.943 62.8667 115.116 62.74 115.314 62.5867C115.854 62.1634 115.404 61.7901 114.992 61.4267C114.894 61.3434 114.685 61.2867 114.485 61.3101C114.227 61.3367 114.083 61.4401 114.045 61.5701C113.991 61.7667 114.015 61.9667 114.17 62.15C114.457 62.49 114.202 62.7833 113.817 63.04C113.321 63.37 112.703 63.6533 112.393 64.0566C112.269 64.2166 111.954 64.2699 111.528 64.1999C109.928 63.9333 109.261 64.0999 108.618 64.8732C108.542 64.9665 108.469 65.0565 108.363 65.1399C107.905 65.4932 107.49 65.5165 106.807 65.2399C105.51 64.7165 104.705 64.6865 103.297 65.1932C102.464 65.4932 101.58 65.3698 100.726 65.3298C100.156 65.2999 99.6058 65.1465 99.0606 65.0332C98.6213 64.9465 98.3175 64.7832 98.388 64.5232C98.4613 64.2432 98.1494 63.9999 98.1467 63.7299C98.1412 63.1166 97.4334 62.79 96.3648 62.6067C95.8522 62.5233 95.3315 62.4333 94.7999 62.39C92.7685 62.2334 91.1982 62.73 90.5988 63.6966C90.4334 63.9633 90.5988 64.1732 90.9812 64.3599C91.3311 64.5332 91.6999 64.6999 91.9847 64.8999C92.3969 65.1832 92.2017 65.3465 91.4694 65.3532C90.6178 65.3598 89.8231 65.2199 89.023 65.0865C87.9301 64.9065 87.4364 65.0599 87.4066 65.6265C87.3903 65.9165 87.1463 66.1431 86.8913 66.3731C86.8832 66.3798 86.8723 66.3898 86.8615 66.3998C86.7042 66.5231 86.4004 66.6064 86.1509 66.5031C86.0017 66.4431 85.8607 66.3998 85.7251 66.3764C85.1962 66.2731 84.7542 66.4098 84.3446 66.6264C83.7507 66.9398 82.9424 66.7864 82.2753 66.9064C81.4399 67.0531 81.0006 66.8064 80.4554 66.5898C79.6526 66.2665 79.0207 66.2865 78.2396 66.6398C77.6375 66.9131 76.9947 67.1164 76.1513 67.1264C75.8421 67.1297 75.5654 67.1931 75.3376 67.2864C73.8758 67.9097 72.1319 67.723 70.4639 67.6797C69.6232 67.6564 69.0265 67.3997 68.7038 66.9897C68.0827 66.2065 66.9273 65.6365 65.4899 65.2232C64.622 64.9732 63.9548 64.7099 63.9521 64.1599C63.9521 63.9099 63.6646 63.6933 63.3175 63.51C62.7425 63.21 62.1756 63.12 61.4922 63.36C60.7952 63.6033 60.4236 63.4733 60.0222 63.21C59.9029 63.1333 59.7863 63.0533 59.6615 62.98C58.8913 62.5167 58.4763 62.4633 57.3589 62.6833C57.0958 62.7333 56.8273 62.8967 56.5615 62.7667C55.7587 62.37 55.1838 62.65 54.5057 62.8733C53.1876 63.3133 52.6154 63.2733 51.3488 62.7433C50.8208 62.5233 50.3236 62.5367 49.8571 62.7833C49.0001 63.2433 47.2806 63.4 46.1578 63.1033C45.8323 63.0166 45.5096 63.0133 45.176 62.98C44.3976 62.9 43.6816 62.75 43.188 62.4033C42.6863 62.0534 42.0272 61.81 41.1729 61.6967C40.4569 61.6001 39.8467 61.5401 39.5483 62.02C39.3693 62.3134 38.6615 62.3867 38.195 62.56C37.9699 62.6433 37.5983 62.6633 37.4817 62.8033C36.942 63.4266 36.0524 63.3566 35.0408 63.14C34.68 63.0666 34.2434 62.9966 33.8827 63.0733C32.8846 63.2933 31.9598 63.1333 31.0024 63.02C30.3949 62.9467 29.7955 62.9133 29.9935 62.4767C30.0613 62.3234 29.8226 62.2567 29.5568 62.2534C29.2639 62.25 28.9059 62.2234 28.6862 62.2934C26.7037 62.9233 24.3658 62.5133 22.2829 62.8467C21.7676 62.93 21.236 62.7967 20.7288 62.6733C19.7389 62.4433 19.5762 62.4833 19.1775 63C19.031 63.19 18.8385 63.2833 18.4344 63.28C17.4499 63.2766 16.5467 63.2066 16.148 62.6667C15.7792 62.1667 14.5994 62.1067 14.1383 61.6901C13.6583 61.7767 13.7532 61.9434 13.7559 62.0734C13.7614 62.3067 13.5905 62.5067 13.3084 62.6833C12.7606 63.0266 12.3049 63.0333 11.8032 62.67C11.4398 62.41 11.1225 62.1267 10.6424 61.9134C10.3631 61.7867 10.0566 61.5901 9.63078 61.7367C9.19413 61.8834 9.18057 62.1534 9.48162 62.3233C10.1759 62.7067 10.0566 63.1233 9.87759 63.5599C9.79622 63.7566 9.8586 63.9566 10.0891 64.1266C10.9652 64.7765 10.7943 65.5365 10.9923 66.2565C11.1089 66.6731 10.8458 66.7431 9.95895 66.6998C9.81792 66.6964 9.67147 66.6898 9.53315 66.6998C8.31269 66.7931 8.12826 66.7464 7.70788 66.2198C7.56414 66.0398 7.4665 65.8465 7.39327 65.6565C7.11935 64.9499 6.62845 64.2966 5.63039 63.7466C5.28052 63.5533 5.14492 63.27 4.86557 63.04C4.45603 62.7 4.08176 62.6467 3.46882 62.9233C2.90198 63.1766 2.39753 63.1733 1.71407 63.0666C1.01976 62.96 0.602093 62.8133 0.523442 62.4367C0.485472 62.2534 0.284774 62.1634 0 62.1334V6.76323C0.0542427 6.87989 0.154592 6.99322 0.290198 7.10988C0.753973 7.50986 1.23402 7.56985 2.15072 7.43986C4.92795 7.04655 6.73423 6.07661 8.25302 4.94C8.70052 4.60669 8.72493 4.19671 8.91749 3.81674C9.04225 3.57342 9.25651 3.48676 9.77453 3.41343C11.0438 3.23344 12.3809 3.18677 13.5986 2.91012C13.916 2.84013 14.274 2.80679 14.4855 2.66347C15.0849 2.25016 15.8904 2.27349 16.5766 2.51681C17.6695 2.89679 18.6079 2.78013 19.5572 2.43348C20.2542 2.17683 20.9648 2.12683 21.7811 2.29682C23.083 2.57681 24.5502 2.58014 25.8249 2.97012C26.5382 3.19011 27.5607 3.12011 28.2957 2.76346C28.5452 2.64014 28.8707 2.53681 29.2287 2.62014C29.6463 2.71347 29.4727 2.91012 29.4429 3.07011C29.3805 3.40343 29.5948 3.64675 30.2755 3.75341C30.8586 3.85007 31.2899 4.05006 31.7428 4.24004C32.4046 4.52003 33.0826 4.61002 33.9044 4.37337C34.9675 4.06006 35.9792 4.12005 36.8606 4.57336C37.0667 4.68002 37.3054 4.77001 37.6173 4.79001C39.1578 4.88667 40.6278 4.83334 41.8726 4.46337C42.3228 4.33004 42.7432 4.16005 43.1283 3.93673C43.6626 3.63008 44.1291 3.52009 44.8424 3.51342C45.0078 3.51342 45.1896 3.51675 45.3875 3.52675C46.4832 3.57675 47.72 3.58008 48.8428 3.35676C49.7758 3.17011 50.6735 3.10678 51.6905 3.34676C52.591 3.56008 53.5212 3.52009 54.3593 3.07678C55.0427 2.7168 55.9242 2.38682 57.066 2.40015C57.584 2.40682 57.9637 2.46348 57.6952 2.79013C57.4864 3.04345 57.7874 3.3301 57.5162 3.58342C57.4186 3.67341 57.462 3.79674 57.6003 3.8634C58.1454 4.11339 58.357 4.4067 58.2919 4.77668C58.2647 4.92334 58.4736 5.06 58.8126 5.08333C59.1516 5.10999 59.3605 5.01 59.4933 4.86334C59.6317 4.70668 59.6723 4.53336 59.9246 4.40004C60.467 4.11339 61.0637 4.11005 61.5085 4.43337C61.9099 4.73002 62.4496 4.97334 62.5364 5.38331C62.615 5.76329 63.2171 5.82329 63.83 5.5733C64.2748 5.38998 64.5325 5.14333 64.5244 4.86667C64.4918 4.00339 65.6092 3.43342 66.6507 2.87346C66.6642 2.87012 66.6751 2.86346 66.6886 2.85346C67.5945 2.36682 68.3946 1.85352 69.078 1.28688C69.5472 0.896905 69.5201 0.890238 70.3988 1.12689C70.529 1.16356 70.6538 1.20355 70.784 1.23688C71.6817 1.46354 71.7088 1.45687 71.9909 0.993566C72.0776 0.853574 72.14 0.706916 72.2539 0.576923C72.3055 0.516927 72.5523 0.440265 72.5577 0.440265C73.0513 0.700249 73.8134 0.603588 74.3369 0.766912C74.9417 0.953568 75.0393 1.27022 74.7871 1.61353C74.5728 1.90685 74.7681 2.19683 74.9986 2.46681C75.2563 2.7668 75.6143 2.99012 76.3303 2.71347C76.5337 2.63347 76.7886 2.58347 77.0137 2.6668C77.4233 2.81679 77.8897 2.91679 78.3698 3.00678C79.4845 3.2201 80.667 3.38343 81.326 3.97673C81.5701 4.19671 82.0908 4.26004 82.636 4.23338C83.9351 4.18005 85.2017 4.24671 86.3706 4.56669C86.791 4.68002 87.233 4.64335 87.6751 4.61669C88.9064 4.54003 90.0265 4.69002 91.0463 5.03C91.3745 5.13999 91.6972 5.25999 92.0986 5.28998C92.7468 5.33665 93.1129 5.5433 93.4574 5.80329C94.724 6.75323 97.352 6.95989 99.1312 6.26326C99.1691 6.24326 99.2369 6.2366 99.2478 6.21993C99.7794 5.37998 101.412 5.46664 102.63 5.33331C103.842 5.19666 104.794 4.93334 105.41 4.4667C106.02 4.00339 107.051 3.95006 107.815 3.65675C108.078 3.55342 108.39 3.64341 108.591 3.76674C109.074 4.06672 109.619 4.11672 110.27 3.89673C110.856 3.70008 111.01 3.8634 111.124 4.13672C111.336 4.63669 111.368 4.63669 112.296 4.46003C112.529 4.41337 112.77 4.32671 112.993 4.3867C114.08 4.67002 114.937 4.35337 115.727 4.09005C116.912 3.70008 118.027 3.60675 119.328 3.9434C120.316 4.20005 121.438 4.18671 122.526 4.13005C123.958 4.06006 125.36 4.02339 126.795 4.18338C128.238 4.34337 129.016 4.08005 129.483 3.40009C130.153 3.56342 130.82 3.70341 130.936 3.13011C130.985 2.87679 131.5 2.87346 131.842 2.81346C132.431 2.71347 132.995 2.68014 133.402 2.36015C133.711 2.1135 134.421 1.99351 134.948 1.81685C135.211 1.73019 135.561 1.66353 135.786 1.74352C137.006 2.18016 138.633 2.26683 139.414 3.11344C140.106 3.86007 141.766 4.27004 143.271 4.64669C143.494 4.70668 143.797 4.71002 143.936 4.58336C144.454 4.11672 144.771 4.30337 145.086 4.65335C145.235 4.81334 145.541 4.87001 145.802 4.74668C146.783 4.27004 147.871 4.55669 148.603 4.80668C149.563 5.13666 150.553 5.29332 151.622 5.31998C152.484 5.34331 153.252 5.49997 154.074 5.56997C154.499 5.6033 154.806 5.66996 154.689 5.94995C154.537 6.31659 155.112 6.30659 155.514 6.21993C156.352 6.04327 157.138 6.06994 157.955 6.22326C158.248 6.28326 158.535 6.32992 158.405 6.52325C158.264 6.73657 158.47 6.88989 158.63 7.07321C159.387 7.94316 160.74 8.02649 161.982 7.2632C162.186 7.13988 162.424 7.05321 162.712 7.04655C163.27 7.03655 163.761 6.85656 164.277 6.85323C167.046 6.83323 168.554 5.88662 170.121 4.97C170.696 4.63669 171.282 4.30337 171.862 3.97339C172.096 3.84007 172.38 3.73007 172.725 3.70341C173.533 3.63008 174.176 3.49675 174.263 3.04678C174.268 3.02345 174.271 3.00345 174.274 2.98012C174.282 2.86012 174.55 2.78013 174.8 2.75013C175.676 2.64014 176.055 2.20683 176.788 2.00684C177.064 1.93018 177.173 1.78685 177.116 1.62686C177.048 1.43687 176.866 1.21689 177.387 1.12356C178.03 1.01023 178.784 0.820243 179.356 1.07689C180.191 1.45021 181.385 1.46021 182.182 1.85352C182.524 2.01684 183.004 1.99684 183.449 1.93018C184.59 1.77019 185.48 1.96018 186.191 2.40682C186.275 2.45681 186.361 2.50681 186.454 2.55014C186.793 2.71013 187.197 2.81013 187.712 2.7768C188.45 2.7268 188.987 2.89346 189.361 3.16677C190.137 3.72007 191.479 3.63675 192.513 3.8934C192.618 3.9234 192.819 3.89673 192.938 3.86673C193.701 3.66008 194.376 3.49675 194.612 4.14338C194.674 4.31337 195.171 4.29671 195.529 4.25004C196.147 4.16338 196.518 3.9434 196.828 3.68674C197.815 2.85679 199.182 2.26683 201.026 1.93684C201.81 1.79352 202.252 1.44354 202.417 1.05023C202.534 0.776912 202.713 0.540259 203.085 0.330271C203.207 0.260275 203.32 0.206945 203.432 0.156948C204.028 -0.0963712 204.511 -0.0430411 205.129 0.316938C205.319 0.430265 205.531 0.553591 205.591 0.69025C205.591 0.696916 205.599 0.703583 205.601 0.713582C205.772 1.06023 206.22 1.27688 206.819 1.4702C207.668 1.73686 208.37 2.07017 208.438 2.63014C208.465 2.83679 208.753 2.96678 209.181 3.03678C210.518 3.25232 211.517 3.59786 212.181 4.07339C213.081 3.8634 213.73 3.58008 214.109 3.07678C214.364 2.7368 214.606 2.35682 215.314 2.09684C216.564 1.63353 217.855 1.78019 219.094 1.97684C221.402 2.33682 223.689 2.72013 226.067 2.95345C226.645 3.01012 227.168 3.11344 227.686 3.28343C229.772 3.96673 232.075 4.11005 234.486 3.82674C235.459 3.71341 235.899 3.75341 236.465 4.20005C236.829 4.49003 237.173 4.60669 237.887 4.55336C238.654 4.49003 239.454 4.52003 240.241 4.51003C240.338 4.51003 240.477 4.53336 240.531 4.5067C241.637 3.99006 243.311 3.88673 244.252 3.25344C244.282 3.2301 244.336 3.21677 244.339 3.19344C244.48 2.47015 245.516 2.57014 246.508 2.60347C247.295 2.63014 248.068 2.57681 248.854 2.51348C249.994 2.42015 251.2 2.34015 252.231 2.75013C252.38 2.81346 252.578 2.86346 252.763 2.87346C254.677 2.97012 255.738 3.61341 256.633 4.35337C256.909 4.58336 257.324 4.69669 257.802 4.77668C258.366 4.86334 258.941 4.93667 259.491 5.04333C260.094 5.15666 260.555 5.16666 261.078 4.90001C261.748 4.56336 262.271 4.61669 262.917 5.01C263.248 5.21332 263.47 5.55997 264.086 5.47664C264.729 5.38664 265.35 5.15666 265.537 4.80001C265.716 4.4467 266.03 4.22005 266.828 4.22338C266.966 4.22671 267.161 4.20338 267.237 4.15672C267.956 3.71008 269.079 3.68674 270.031 3.59342C271.357 3.45676 272.705 3.2401 274.104 3.36676C274.395 3.39343 274.755 3.47009 274.967 3.36343C276.304 2.6968 278.181 3.08011 279.686 2.75346C279.971 2.69347 280.247 2.79346 280.527 2.85013C281.788 3.09344 282.037 2.99345 281.98 2.29349C281.975 2.22349 282.01 2.15017 282.032 2.0435C282.778 1.98018 283.562 1.99017 284.267 1.77352C284.592 1.67353 285.129 1.74352 285.571 1.73352C286.027 1.72352 286.152 1.84352 286.157 2.0535C286.182 2.98345 287.578 3.45009 288.842 3.95339C289.081 4.05006 289.436 4.09672 289.55 3.89007C289.702 3.61341 289.924 3.59008 290.158 3.64341C290.252 3.66674 290.35 3.70674 290.445 3.74674C290.445 3.74674 290.447 3.74785 290.45 3.75007C290.502 3.77007 290.551 3.79007 290.6 3.8134C291.283 4.11005 291.991 4.33004 292.946 4.38004C293.689 4.4167 293.776 4.08672 294.204 3.96673C294.649 3.8434 295.094 4.17338 295.604 3.99339C296.523 3.67008 296.504 3.07345 295.487 2.82013C294.993 2.70013 294.513 2.57347 294.085 2.42015C293.691 2.27683 293.339 2.1035 293.06 1.88685C292.921 1.78019 292.799 1.65353 292.943 1.54687C293.116 1.41687 293.388 1.48354 293.597 1.5502C294.212 1.73686 294.847 1.80019 295.574 1.71019C296.208 1.63353 296.683 1.86018 297.198 2.00351C297.369 2.05017 297.537 2.1035 297.705 2.14683C298.123 2.24683 298.546 2.28016 299.029 2.01351C299.449 1.78685 300.038 1.96351 300.344 2.12683C301.367 2.68013 302.886 2.84679 303.992 3.35676C304.689 3.67674 305.847 3.62675 306.832 3.65341C307.887 3.67674 308.89 3.77341 309.772 4.08339C309.972 4.15338 310.292 4.21671 310.339 4.31004C310.691 5.03333 312.066 4.90334 313.018 5.11999C313.593 5.25332 313.97 5.12999 314.217 4.87334C314.447 4.63002 314.594 4.22671 315.047 4.21338C316.129 4.17672 316.574 3.88673 316.886 3.45009C316.924 3.40009 317.108 3.3501 317.241 3.33676C317.471 3.30677 317.678 3.2701 317.862 3.22344C318.814 2.99345 319.15 2.55681 318.985 1.97018C320.411 2.15017 320.712 2.49348 319.945 2.96012C319.82 3.03678 319.663 3.10011 319.56 3.18011C319.549 3.18677 319.538 3.2001 319.527 3.2101H319.525C319.378 3.32676 319.294 3.45676 319.552 3.57675C319.76 3.67674 320.01 3.65008 320.241 3.59675C320.42 3.55675 320.58 3.49342 320.759 3.45342C321.361 3.31676 321.822 3.36676 322.022 3.71008C322.275 4.14338 322.847 4.29338 323.715 4.19671C324.439 4.11672 325.255 4.4267 325.928 4.04006C326.183 3.8934 326.465 3.75674 326.671 3.59008C326.977 3.3401 327.279 3.08345 327.628 2.85013C328.385 2.33682 328.746 2.30349 329.757 2.7268C330.316 2.96012 330.859 2.89679 331.425 2.84013C332.369 2.74346 333.129 2.7368 333.611 3.28677C333.907 3.62008 334.978 3.61675 335.331 3.99673C335.353 4.02339 335.643 4.02339 335.732 3.98673C336.264 3.77674 336.888 3.66674 337.506 3.55675C337.625 3.53342 337.742 3.51342 337.859 3.49009C338.092 3.44342 338.292 3.34343 338.311 3.21677C338.379 2.76346 339.247 2.69013 339.765 2.45015C340.175 2.26683 340.481 2.40682 340.731 2.58347C340.777 3.16677 341.715 3.10678 342.472 3.18011C343.812 3.21344 344.652 3.55675 345.119 4.17338C345.189 4.26338 345.265 4.35671 345.349 4.44337C345.621 4.73335 345.976 4.99667 346.486 5.20666C346.741 5.31332 346.998 5.45997 347.394 5.38664C347.834 5.30332 347.712 5.11999 347.685 4.95C347.647 4.72335 347.855 4.61336 348.303 4.71335C349.938 5.07333 351.403 4.71668 352.751 4.36004C353.54 4.15005 354.243 4.02006 355.102 4.08005C355.856 4.13005 356.58 4.11672 357.256 3.92006C357.698 3.79007 358.172 3.74674 358.682 3.79007C359.518 3.86007 360.228 3.75674 360.833 3.44676C361.733 2.98345 362.859 3.18677 363.909 3.2401C364.294 3.25677 364.386 3.46342 364.511 3.62341C364.663 3.82007 365.026 4.02339 365.392 3.89673C366.585 3.49009 367.586 3.91673 368.579 4.07005C369.173 4.16338 369.618 4.26671 369.997 4.12338L370 4.12005Z" fill="white"/>
</svg>
