<svg width="94" height="94" viewBox="0 0 94 94" fill="none" xmlns="http://www.w3.org/2000/svg">
<path d="M58.75 15.667C54.5949 15.667 50.61 17.3176 47.672 20.2557C44.7339 23.1937 43.0833 27.1786 43.0833 31.3337C43.0833 35.4887 44.7339 39.4736 47.672 42.4117C50.61 45.3497 54.5949 47.0003 58.75 47.0003C62.905 47.0003 66.8899 45.3497 69.828 42.4117C72.766 39.4736 74.4166 35.4887 74.4166 31.3337C74.4166 27.1786 72.766 23.1937 69.828 20.2557C66.8899 17.3176 62.905 15.667 58.75 15.667ZM58.75 23.1087C63.2933 23.1087 66.975 26.7903 66.975 31.3337C66.975 35.877 63.2933 39.5587 58.75 39.5587C56.5686 39.5587 54.4765 38.6921 52.934 37.1496C51.3915 35.6071 50.525 33.5151 50.525 31.3337C50.525 29.1523 51.3915 27.0602 52.934 25.5177C54.4765 23.9752 56.5686 23.1087 58.75 23.1087ZM15.6666 27.417V39.167H3.91663V47.0003H15.6666V58.7503H23.5V47.0003H35.25V39.167H23.5V27.417H15.6666ZM58.75 50.917C48.2925 50.917 27.4166 56.1262 27.4166 66.5837V78.3337H90.0833V66.5837C90.0833 56.1262 69.2075 50.917 58.75 50.917ZM58.75 58.3587C70.3825 58.3587 82.6416 64.077 82.6416 66.5837V70.892H34.8583V66.5837C34.8583 64.077 47 58.3587 58.75 58.3587Z" fill="#472C1B"/>
</svg>
